<?xml version="1.0" encoding="utf-8"?>
<!-- Generator: Adobe Illustrator 27.5.0, SVG Export Plug-In . SVG Version: 6.00 Build 0)  -->
<svg version="1.1" xmlns="http://www.w3.org/2000/svg" xmlns:xlink="http://www.w3.org/1999/xlink" x="0px" y="0px"
	 viewBox="0 0 500 500" style="enable-background:new 0 0 500 500;" xml:space="preserve">
<g id="Floor">
	<ellipse id="Floor_8_" style="fill:#F5F5F5;" cx="250" cy="345.634" rx="233.471" ry="134.795"/>
</g>
<g id="Shadows">
	<polygon id="Shadow_63_" style="fill:#E0E0E0;" points="218.752,456.968 104.559,391.039 292.714,282.764 406.906,348.693 	"/>
	<path id="Shadow_115_" style="fill:#E0E0E0;" d="M405.588,326.131c-12.208,7.048-12.208,18.476,0,25.525
		c12.209,7.048,32.003,7.048,44.211,0c12.209-7.049,12.209-18.477-0.001-25.525C437.59,319.082,417.796,319.082,405.588,326.131z"/>
	<path id="Shadow_47_" style="fill:#E0E0E0;" d="M60.147,388.753c-15.006,8.308-15.005,21.779,0,30.087
		c15.005,8.308,39.334,8.309,54.34,0c15.006-8.308,15.006-21.779,0-30.087C99.481,380.445,75.152,380.445,60.147,388.753z"/>
	<path id="Shadow_46_" style="fill:#E0E0E0;" d="M172.447,397.889l-75.9-43.821c-3.765-2.174-3.765-5.698,0-7.872l50.319-29.052
		c3.765-2.174,9.969-2.359,13.857-0.414l81.85,40.955c3.888,1.945,3.988,5.285,0.223,7.459l-56.714,32.744
		C182.317,400.062,176.212,400.062,172.447,397.889z"/>
</g>
<g id="Pictures">
	<g id="Picture_12_">
		<g id="Frame_11_">
			<polygon id="XMLID_3719_" style="fill:#FAFAFA;" points="52.583,105.999 54.407,107.087 91.828,85.481 90.005,84.393 			"/>
			<g id="XMLID_3668_">
				<g id="XMLID_3669_">
					<g id="XMLID_3717_">
						<polygon id="XMLID_3718_" style="fill:#FFFFFF;" points="90.005,84.393 54.407,104.941 54.408,67.664 90.006,47.129 						"/>
					</g>
				</g>
			</g>
			<path id="XMLID_3665_" style="fill:#F0F0F0;" d="M95.27,40.098L50.966,65.677l0,47.369L95.27,87.467L95.27,40.098z
				 M91.828,85.481l-37.421,21.605l0.001-39.423l37.421-21.605L91.828,85.481z"/>
			<polygon id="XMLID_3664_" style="fill:#E0E0E0;" points="91.828,85.481 90.005,84.393 90.006,47.129 91.828,46.059 			"/>
			<polygon id="XMLID_3642_" style="fill:#FAFAFA;" points="95.27,40.098 93.418,39.039 49.114,64.618 50.966,65.677 			"/>
			<polygon id="XMLID_3641_" style="fill:#E0E0E0;" points="49.114,64.618 50.966,65.677 50.966,113.046 49.114,111.986 			"/>
		</g>
		<g id="Land_2_">
			<polygon style="fill:#F0F0F0;" points="88.615,83.279 55.797,102.227 55.797,92.753 64.003,73.805 69.114,78.542 67.275,86.484 
				78.607,62.249 88.615,73.806 			"/>
			<path style="fill:#F0F0F0;" d="M68.805,64.657c-1.341,0.774-2.427,2.656-2.427,4.204c0,1.548,1.087,2.175,2.427,1.402
				c1.34-0.774,2.427-2.656,2.427-4.204C71.232,64.51,70.145,63.883,68.805,64.657z"/>
		</g>
	</g>
	<g id="Picture_11_">
		<g id="Frame_10_">
			<polygon id="XMLID_3640_" style="fill:#FAFAFA;" points="52.583,171.526 54.407,172.613 91.828,151.008 90.005,149.92 			"/>
			<g id="XMLID_3597_">
				<g id="XMLID_3598_">
					<g id="XMLID_3604_">
						<polygon id="XMLID_3605_" style="fill:#FFFFFF;" points="90.005,149.92 54.407,170.468 54.408,133.191 90.005,112.656 						
							"/>
					</g>
				</g>
			</g>
			<path id="XMLID_3594_" style="fill:#F0F0F0;" d="M95.27,105.625l-44.304,25.579l0,47.369l44.304-25.579L95.27,105.625z
				 M91.828,151.008l-37.421,21.605l0.001-39.423l37.421-21.605L91.828,151.008z"/>
			<polygon id="XMLID_3579_" style="fill:#E0E0E0;" points="91.828,151.008 90.005,149.92 90.005,112.656 91.828,111.586 			"/>
			<polygon id="XMLID_3574_" style="fill:#FAFAFA;" points="95.27,105.625 93.418,104.565 49.114,130.144 50.966,131.204 			"/>
			<polygon id="XMLID_2989_" style="fill:#E0E0E0;" points="49.114,130.144 50.966,131.204 50.966,178.573 49.114,177.513 			"/>
		</g>
		<g id="Land_1_">
			<polygon style="fill:#F0F0F0;" points="88.615,148.806 55.797,167.754 55.797,158.28 64.003,139.332 69.114,144.069 
				67.275,152.01 78.607,127.776 88.615,139.333 			"/>
			<path style="fill:#F0F0F0;" d="M68.805,130.183c-1.341,0.774-2.427,2.656-2.427,4.204c0,1.548,1.087,2.175,2.427,1.402
				c1.34-0.774,2.427-2.656,2.427-4.204S70.145,129.41,68.805,130.183z"/>
		</g>
	</g>
</g>
<g id="Plant">
	<g id="Plant_1_">
		<g id="Pot_4_">
			<g id="Pot_11_">
				<g id="XMLID_2996_">
					<g id="XMLID_3480_">
						<g id="XMLID_3522_">
							<g id="XMLID_3562_">
								<path id="XMLID_3563_" style="fill:#BA68C8;" d="M409.378,341.425c-9.798-10.11-15.553-51.254-5.996-59.272h48.624
									c9.554,8.016,3.805,49.146-5.987,59.263c-0.084,0.094-0.18,0.185-0.268,0.278c-0.112,0.112-0.224,0.225-0.337,0.334
									c-0.277,0.271-0.57,0.536-0.886,0.797c-0.078,0.065-0.156,0.123-0.234,0.186c-0.24,0.19-0.477,0.381-0.739,0.565
									c-0.418,0.3-0.839,0.579-1.267,0.819c-8.06,4.705-21.126,4.705-29.185,0l-0.001,0l-0.001,0
									c-0.43-0.242-0.855-0.523-1.275-0.825c-0.244-0.171-0.464-0.349-0.689-0.526c-0.096-0.077-0.193-0.149-0.289-0.229
									c-0.304-0.251-0.587-0.508-0.854-0.768c-0.131-0.124-0.26-0.255-0.389-0.385
									C409.53,341.581,409.448,341.505,409.378,341.425z"/>
							</g>
							<g id="XMLID_3560_" style="opacity:0.7;">
								<path id="XMLID_3561_" style="fill:#FFFFFF;" d="M409.378,341.425c-9.798-10.11-15.553-51.254-5.996-59.272h48.624
									c9.554,8.016,3.805,49.146-5.987,59.263c-0.084,0.094-0.18,0.185-0.268,0.278c-0.112,0.112-0.224,0.225-0.337,0.334
									c-0.277,0.271-0.57,0.536-0.886,0.797c-0.078,0.065-0.156,0.123-0.234,0.186c-0.24,0.19-0.477,0.381-0.739,0.565
									c-0.418,0.3-0.839,0.579-1.267,0.819c-8.06,4.705-21.126,4.705-29.185,0l-0.001,0l-0.001,0
									c-0.43-0.242-0.855-0.523-1.275-0.825c-0.244-0.171-0.464-0.349-0.689-0.526c-0.096-0.077-0.193-0.149-0.289-0.229
									c-0.304-0.251-0.587-0.508-0.854-0.768c-0.131-0.124-0.26-0.255-0.389-0.385
									C409.53,341.581,409.448,341.505,409.378,341.425z"/>
							</g>
							<g id="XMLID_3558_">
								<path id="XMLID_3559_" style="fill:#BA68C8;" d="M447.783,278.923c11.094,6.478,11.094,16.98,0,23.457
									c-11.095,6.478-29.082,6.478-40.177,0c-11.094-6.477-11.094-16.979,0-23.456
									C418.701,272.446,436.689,272.446,447.783,278.923z"/>
							</g>
							<g id="XMLID_3555_" style="opacity:0.85;">
								<path id="XMLID_3556_" style="fill:#FFFFFF;" d="M447.783,278.923c11.094,6.478,11.094,16.98,0,23.457
									c-11.095,6.478-29.082,6.478-40.177,0c-11.094-6.477-11.094-16.979,0-23.456
									C418.701,272.446,436.689,272.446,447.783,278.923z"/>
							</g>
							<g id="XMLID_3551_">
								<path id="XMLID_3552_" style="fill:#BA68C8;" d="M442.447,282.039c8.148,4.757,8.147,12.469,0,17.226
									c-8.147,4.757-21.357,4.757-29.505,0c-8.147-4.757-8.147-12.469,0-17.227C421.09,277.283,434.299,277.283,442.447,282.039z"
									/>
							</g>
							<g id="XMLID_3542_" style="opacity:0.75;">
								<path id="XMLID_3548_" style="fill:#FFFFFF;" d="M442.447,282.039c8.148,4.757,8.147,12.469,0,17.226
									c-8.147,4.757-21.357,4.757-29.505,0c-8.147-4.757-8.147-12.469,0-17.227C421.09,277.283,434.299,277.283,442.447,282.039z"
									/>
							</g>
							<g id="XMLID_3523_">
								<path id="XMLID_3541_" style="fill:#FAFAFA;" d="M412.942,290.215c8.147-4.757,21.357-4.757,29.504,0
									c2.263,1.322,3.874,2.875,4.88,4.525c-1.006,1.651-2.617,3.204-4.88,4.526c-8.147,4.757-21.357,4.757-29.504,0
									c-2.263-1.322-3.875-2.875-4.88-4.526C409.068,293.089,410.679,291.536,412.942,290.215z"/>
							</g>
						</g>
					</g>
				</g>
			</g>
		</g>
		<g>
			<g id="Plants_8_">
				<g id="XMLID_3573_">
					<path id="XMLID_3575_" style="fill:#BA68C8;" d="M428.815,288.726c0.33,0.124,2.91,0.399,3.267,0.414
						c4.082,0.175,9.084-1.849,13.582-3.836c2.965-1.31,6.957-3.099,8.863-6.16c0.944-1.517,1.303-3.602,0.426-4.989
						c-0.945-1.496-3.083-1.914-3.507-3.715c3.141-2.087,7.176-2.197,9.85-5.003c2.013-2.113,3.058-4.843,3.676-7.754
						c0.364-1.717,0.368-4.057-0.532-5.383c-1.066-1.57-3.243-1.434-5.099-1.242c-0.49,0.051-0.996,0.094-1.445-0.079
						c-0.448-0.173-0.827-0.621-0.798-1.163c0.036-0.665,0.622-1.161,1.16-1.51c1.152-0.748,2.378-1.34,3.496-2.154
						c1.118-0.814,2.155-1.904,2.626-3.272c0.56-1.628,0.241-3.366-0.128-4.97c-0.624-2.712-1.325-5.442-2.247-8.024
						c-0.223-0.623-1.855-7.046-1.627-7.052c-6.503,0.172-13.198,2.561-19.248,5.664c-3.376,1.732-8.194,4.866-9.166,9.242
						c-0.277,1.245-0.163,2.494,0.109,3.672c0.124,0.534,0.392,1.03,0.577,1.535c0.117,0.319,0.611,1.549-0.224,1.145
						c-0.185-0.089-0.314-0.272-0.435-0.449c-1.071-1.557-2.142-3.114-3.212-4.671c-0.321-0.466-0.667-0.953-1.176-1.143
						c-1.08-0.402-3.644,0.827-6.09,3.985c-1.62,2.091-2.351,4.895-2.508,7.519c-0.252,4.222,0.96,8.219,2.157,12.095
						c-0.968-0.992-1.936-1.983-2.904-2.975c-3.392-3.475-4.024,4.708-3.9,6.407c0.325,4.473,2.113,11.066,4.363,14.625
						C421.342,283.628,424.429,287.082,428.815,288.726z"/>
					<path id="XMLID_3567_" style="opacity:0.3;fill:#FFFFFF;" d="M428.815,288.726c0.33,0.124,2.91,0.399,3.267,0.414
						c4.082,0.175,9.084-1.849,13.582-3.836c2.965-1.31,6.957-3.099,8.863-6.16c0.944-1.517,1.303-3.602,0.426-4.989
						c-0.945-1.496-3.083-1.914-3.507-3.715c3.141-2.087,7.176-2.197,9.85-5.003c2.013-2.113,3.058-4.843,3.676-7.754
						c0.364-1.717,0.368-4.057-0.532-5.383c-1.066-1.57-3.243-1.434-5.099-1.242c-0.49,0.051-0.996,0.094-1.445-0.079
						c-0.448-0.173-0.827-0.621-0.798-1.163c0.036-0.665,0.622-1.161,1.16-1.51c1.152-0.748,2.378-1.34,3.496-2.154
						c1.118-0.814,2.155-1.904,2.626-3.272c0.56-1.628,0.241-3.366-0.128-4.97c-0.624-2.712-1.325-5.442-2.247-8.024
						c-0.223-0.623-1.855-7.046-1.627-7.052c-6.503,0.172-13.198,2.561-19.248,5.664c-3.376,1.732-8.194,4.866-9.166,9.242
						c-0.277,1.245-0.163,2.494,0.109,3.672c0.124,0.534,0.392,1.03,0.577,1.535c0.117,0.319,0.611,1.549-0.224,1.145
						c-0.185-0.089-0.314-0.272-0.435-0.449c-1.071-1.557-2.142-3.114-3.212-4.671c-0.321-0.466-0.667-0.953-1.176-1.143
						c-1.08-0.402-3.644,0.827-6.09,3.985c-1.62,2.091-2.351,4.895-2.508,7.519c-0.252,4.222,0.96,8.219,2.157,12.095
						c-0.968-0.992-1.936-1.983-2.904-2.975c-3.392-3.475-4.024,4.708-3.9,6.407c0.325,4.473,2.113,11.066,4.363,14.625
						C421.342,283.628,424.429,287.082,428.815,288.726z"/>
					<path style="fill:#FFFFFF;" d="M433.433,266.794c-1.432-8.89-5.226-14.762-7.499-18.274l-0.082-0.126
						c-0.149-0.23-0.09-0.568,0.133-0.756c0.22-0.183,0.524-0.151,0.674,0.08l0.082,0.126c2.175,3.361,5.703,8.868,7.34,17.071
						c5.643-15.979,14.913-32.228,20.289-37.272c0.226-0.209,0.553-0.198,0.726,0.037c0.173,0.234,0.129,0.597-0.098,0.81
						c-5.303,4.975-14.453,21.03-20.001,36.793c9.381-7.313,18.797-6.534,18.896-6.525c0.263,0.025,0.44,0.285,0.393,0.581
						c-0.032,0.203-0.162,0.371-0.324,0.447c-0.075,0.035-0.155,0.05-0.238,0.043c-0.098-0.009-9.909-0.832-19.331,7.211
						c-2.505,7.476-4.133,14.79-4.081,20.721c0.002,0.226-0.116,0.435-0.288,0.546c-0.068,0.043-0.143,0.072-0.224,0.081
						c-0.286,0.032-0.52-0.198-0.522-0.513C429.223,281.841,430.883,274.399,433.433,266.794z"/>
				</g>
			</g>
			<g id="Plants_7_">
				<g id="XMLID_3566_">
					<path id="XMLID_3571_" style="fill:#BA68C8;" d="M429.118,296.717c-0.29,0.139-2.583,0.666-2.9,0.721
						c-3.636,0.623-8.167-0.432-12.246-1.516c-2.689-0.714-6.312-1.697-8.115-3.958c-0.893-1.12-1.284-2.771-0.549-4.001
						c0.792-1.326,2.686-1.918,3.003-3.429c-2.873-1.325-6.476-0.939-8.956-2.902c-1.868-1.478-2.892-3.572-3.541-5.864
						c-0.383-1.351-0.466-3.251,0.292-4.434c0.898-1.4,2.845-1.547,4.507-1.609c0.439-0.017,0.892-0.041,1.286-0.234
						c0.394-0.194,0.717-0.602,0.672-1.039c-0.055-0.535-0.594-0.87-1.086-1.089c-1.053-0.471-2.167-0.808-3.192-1.337
						c-1.025-0.529-1.987-1.292-2.453-2.348c-0.555-1.256-0.328-2.705-0.054-4.05c0.465-2.276,0.998-4.575,1.734-6.78
						c0.177-0.532,1.417-5.939,1.213-5.917c5.808-0.626,11.861,0.525,17.363,2.333c3.071,1.009,7.474,2.986,8.49,6.425
						c0.289,0.979,0.229,2.006,0.026,2.994c-0.092,0.448-0.314,0.882-0.463,1.314c-0.094,0.273-0.492,1.33,0.238,0.903
						c0.163-0.095,0.271-0.258,0.373-0.416c0.903-1.39,1.805-2.78,2.708-4.17c0.27-0.417,0.563-0.853,1.011-1.067
						c0.95-0.454,3.278,0.243,5.567,2.519c1.516,1.507,2.263,3.698,2.491,5.81c0.367,3.399-0.579,6.787-1.515,10.074
						c0.83-0.919,1.66-1.838,2.49-2.758c2.908-3.221,3.749,3.349,3.696,4.743c-0.139,3.671-1.511,9.234-3.398,12.388
						C435.612,291.697,432.975,294.866,429.118,296.717z"/>
					<path id="XMLID_3578_" style="opacity:0.5;fill:#FFFFFF;" d="M429.118,296.717c-0.29,0.139-2.583,0.666-2.9,0.721
						c-3.636,0.623-8.167-0.432-12.246-1.516c-2.689-0.714-6.312-1.697-8.115-3.958c-0.893-1.12-1.284-2.771-0.549-4.001
						c0.792-1.326,2.686-1.918,3.003-3.429c-2.873-1.325-6.476-0.939-8.956-2.902c-1.868-1.478-2.892-3.572-3.541-5.864
						c-0.383-1.351-0.466-3.251,0.292-4.434c0.898-1.4,2.845-1.547,4.507-1.609c0.439-0.017,0.892-0.041,1.286-0.234
						c0.394-0.194,0.717-0.602,0.672-1.039c-0.055-0.535-0.594-0.87-1.086-1.089c-1.053-0.471-2.167-0.808-3.192-1.337
						c-1.025-0.529-1.987-1.292-2.453-2.348c-0.555-1.256-0.328-2.705-0.054-4.05c0.465-2.276,0.998-4.575,1.734-6.78
						c0.177-0.532,1.417-5.939,1.213-5.917c5.808-0.626,11.861,0.525,17.363,2.333c3.071,1.009,7.474,2.986,8.49,6.425
						c0.289,0.979,0.229,2.006,0.026,2.994c-0.092,0.448-0.314,0.882-0.463,1.314c-0.094,0.273-0.492,1.33,0.238,0.903
						c0.163-0.095,0.271-0.258,0.373-0.416c0.903-1.39,1.805-2.78,2.708-4.17c0.27-0.417,0.563-0.853,1.011-1.067
						c0.95-0.454,3.278,0.243,5.567,2.519c1.516,1.507,2.263,3.698,2.491,5.81c0.367,3.399-0.579,6.787-1.515,10.074
						c0.83-0.919,1.66-1.838,2.49-2.758c2.908-3.221,3.749,3.349,3.696,4.743c-0.139,3.671-1.511,9.234-3.398,12.388
						C435.612,291.697,432.975,294.866,429.118,296.717z"/>
					<path style="fill:#FFFFFF;" d="M424.257,279.452c0.977-7.387,4.163-12.602,6.072-15.721l0.069-0.112
						c0.125-0.204,0.061-0.472-0.144-0.598c-0.202-0.123-0.473-0.061-0.598,0.144l-0.068,0.112
						c-1.827,2.985-4.788,7.872-5.972,14.725c-5.574-12.31-14.393-24.412-19.36-27.875c-0.209-0.143-0.5-0.095-0.646,0.115
						c-0.146,0.21-0.094,0.5,0.115,0.646c4.899,3.415,13.605,15.373,19.086,27.52c-8.616-4.833-16.989-3.092-17.078-3.073
						c-0.234,0.051-0.383,0.283-0.331,0.518c0.035,0.161,0.157,0.282,0.305,0.325c0.068,0.019,0.14,0.022,0.214,0.007
						c0.087-0.019,8.812-1.842,17.49,3.579c2.487,5.775,4.187,11.523,4.341,16.345c0.006,0.184,0.118,0.34,0.276,0.409
						c0.062,0.027,0.13,0.042,0.203,0.039c0.256-0.008,0.457-0.222,0.448-0.478C428.521,291.175,426.789,285.328,424.257,279.452z"
						/>
				</g>
			</g>
		</g>
	</g>
</g>
<g id="Character">
	<g id="Character_18_">
		<g id="Chair_19_">
			<g>
				<g>
					<path style="fill:#263238;" d="M241.345,364.207l-9.697-80.935l-7.925-0.402l13.632,81.325h0.009
						c0.038,0.251,0.207,0.502,0.528,0.71c0.757,0.49,2.022,0.554,2.825,0.143c0.426-0.218,0.63-0.527,0.62-0.842H241.345z"/>
					<path style="fill:#263238;" d="M231.648,283.272l-7.925-0.402l2.332,15.346c1.902-0.715,2.645-1.059,4.692-2.159
						c1.089-0.585,2.008-1.395,2.095-1.791L231.648,283.272z"/>
				</g>
				<g>
					<path style="fill:#37474F;" d="M126.328,271.403h-7.935l-11.548,76.424l0.009,0.001c-0.026,0.314,0.162,0.632,0.577,0.872
						c0.781,0.451,2.047,0.451,2.828,0c0.331-0.191,0.513-0.433,0.564-0.682l0.009,0L126.328,271.403z"/>
					<path style="fill:#263238;" d="M118.392,271.403l-3.223,21.329c1.438,1.246,4.298,2.901,6.088,3.727l5.07-25.055H118.392z"/>
				</g>
				<g>
					<path style="fill:#37474F;" d="M188.322,391.339l-7.458-82.297l-7.925-0.402l11.393,82.688h0.009
						c0.037,0.251,0.207,0.502,0.528,0.71c0.757,0.49,2.022,0.554,2.825,0.143c0.427-0.218,0.63-0.527,0.62-0.841H188.322z"/>
					<path style="fill:#263238;" d="M181.838,320.888l-0.975-11.847l-7.925-0.402l1.608,12.781
						C176.313,321.957,179.53,321.632,181.838,320.888z"/>
				</g>
				<g>
					<path style="fill:#263238;" d="M169.64,246.221h-7.936l-11.548,76.425l0.009,0c-0.026,0.314,0.161,0.632,0.577,0.872
						c0.781,0.451,2.047,0.451,2.828,0c0.331-0.191,0.513-0.433,0.564-0.682l0.008,0L169.64,246.221z"/>
				</g>
			</g>
			<g id="Chair_20_">
				<path style="fill:#BA68C8;" d="M103.482,183.747c-1.589,3.707-2.684,8.249-3.169,13.931
					c-0.906,10.681,2.709,45.267,4.881,60.732l-0.009-0.009c3.141,25.841,6.992,25.886,12.593,30.212
					c9.631,7.441,37.33,22.026,46.476,25.626c16.578,6.525,30.132-3.536,40.238-8.527c10.098-4.982,22.511-12.764,26.766-15.851
					c2.522-1.84,3.832-3.698,3.806-5.655c-0.009-0.772,0.009-3.949,0.009-4.766c-0.009-2.495-2.199-5.17-6.839-8.177
					c-8.563-5.556-39.511-23.606-51.503-30.248c-0.018-0.09-0.099-0.099-0.099-0.099c-9.227-5.601-14.781-43.678-21.172-63.937
					c-0.134-0.431-0.269-0.853-0.413-1.257c-0.108-0.323-0.225-0.638-0.332-0.943c-0.404-1.104-0.817-2.109-1.257-3.034"/>
				<path style="fill:#BA68C8;" d="M235.073,279.44c-0.009-2.495-2.199-5.17-6.84-8.177c-8.563-5.556-39.511-23.606-51.503-30.248
					c-0.018-0.09-0.099-0.099-0.099-0.099c-9.227-5.601-14.781-43.678-21.172-63.937c-0.059-0.19-0.51-1.746-1.338-3.727
					c-0.038-0.092-0.078-0.178-0.117-0.27c-0.115-0.27-0.237-0.544-0.365-0.825c-0.062-0.135-0.12-0.28-0.183-0.412l-0.008,0.002
					c-1.034-2.18-2.457-4.567-4.265-6.159c-0.152-0.134-0.873-0.841-2.09-1.47c-1.038-0.586-3.217-1.798-3.761-2.117
					c-6.269-3.751-14.49,0.75-24.735,6.361c-6.371,3.494-11.807,7.646-15.116,15.383l-0.001,0
					c-1.589,3.707-2.684,8.249-3.169,13.931c-0.907,10.681,2.709,45.267,4.881,60.732l-0.009-0.009
					c3.141,25.841,6.992,25.886,12.593,30.212c9.631,7.441,37.33,22.026,46.476,25.626c16.578,6.525,30.132-3.536,40.238-8.527
					c10.098-4.982,22.511-12.764,26.766-15.851c2.522-1.84,3.833-3.698,3.806-5.655C235.055,283.434,235.073,280.257,235.073,279.44
					z"/>
				<path style="opacity:0.25;fill:#FFFFFF;" d="M235.073,279.44c-0.009-2.495-2.199-5.17-6.84-8.177
					c-8.563-5.556-39.511-23.606-51.503-30.248c-0.018-0.09-0.099-0.099-0.099-0.099c-9.227-5.601-14.781-43.678-21.172-63.937
					c-0.059-0.19-0.51-1.746-1.338-3.727c-0.038-0.092-0.078-0.178-0.117-0.27c-0.115-0.27-0.237-0.544-0.365-0.825
					c-0.062-0.135-0.12-0.28-0.183-0.412l-0.008,0.002c-1.034-2.18-2.457-4.567-4.265-6.159c-0.152-0.134-0.873-0.841-2.09-1.47
					c-1.038-0.586-3.217-1.798-3.761-2.117c-6.269-3.751-14.49,0.75-24.735,6.361c-6.371,3.494-11.807,7.646-15.116,15.383l-0.001,0
					c-1.589,3.707-2.684,8.249-3.169,13.931c-0.907,10.681,2.709,45.267,4.881,60.732l-0.009-0.009
					c3.141,25.841,6.992,25.886,12.593,30.212c9.631,7.441,37.33,22.026,46.476,25.626c16.578,6.525,30.132-3.536,40.238-8.527
					c10.098-4.982,22.511-12.764,26.766-15.851c2.522-1.84,3.833-3.698,3.806-5.655C235.055,283.434,235.073,280.257,235.073,279.44
					z"/>
				<g id="XMLID_3228_">
					<path id="XMLID_3233_" style="fill:#BA68C8;" d="M204.489,300.908c10.1-4.989,22.516-12.77,26.767-15.858
						c5.747-4.173,5.218-8.443-3.018-13.786c-11.443-7.423-58.088-33.891-58.088-33.891s-58.971,34.801-56.434,41.227
						c2.537,6.426,39.037,26.308,50.536,30.831C180.836,315.955,194.388,305.897,204.489,300.908z"/>
					<path id="XMLID_3232_" style="opacity:0.6;fill:#FFFFFF;" d="M204.489,300.908c10.1-4.989,22.516-12.77,26.767-15.858
						c5.747-4.173,5.218-8.443-3.018-13.786c-11.443-7.423-58.088-33.891-58.088-33.891s-58.971,34.801-56.434,41.227
						c2.537,6.426,39.037,26.308,50.536,30.831C180.836,315.955,194.388,305.897,204.489,300.908z"/>
				</g>
				<path id="XMLID_3205_" style="fill:#BA68C8;" d="M147.096,164.119c-6.207-3.258-14.274,1.171-24.253,6.639
					c-6.392,3.504-11.838,7.656-15.147,15.425l-4.213-2.436c3.309-7.738,8.745-11.89,15.117-15.384
					c10.246-5.611,18.467-10.112,24.735-6.361C143.879,162.321,146.058,163.533,147.096,164.119z"/>
				<path id="XMLID_3204_" style="opacity:0.5;fill:#FFFFFF;" d="M147.096,164.119c-6.207-3.258-14.274,1.171-24.253,6.639
					c-6.392,3.504-11.838,7.656-15.147,15.425l-4.213-2.436c3.309-7.738,8.745-11.89,15.117-15.384
					c10.246-5.611,18.467-10.112,24.735-6.361C143.879,162.321,146.058,163.533,147.096,164.119z"/>
				<g id="XMLID_3203_">
					<path style="fill:#BA68C8;" d="M155.46,176.979c-0.134-0.431-2.27-7.863-6.274-11.39c-0.296-0.26-2.733-2.585-6.786-2.585
						c-5.421,0-11.929,3.581-19.558,7.755c-0.637,0.35-1.266,0.709-1.885,1.077c-0.242,0.135-0.476,0.278-0.709,0.422
						c-0.287,0.171-0.565,0.35-0.844,0.53c-0.206,0.126-0.413,0.26-0.619,0.404c-1.346,0.888-2.63,1.858-3.842,2.917
						c-0.197,0.171-0.386,0.341-0.575,0.53c-0.763,0.7-1.49,1.454-2.181,2.262c-0.126,0.144-0.251,0.287-0.368,0.431
						c-0.144,0.179-0.296,0.359-0.431,0.538c-0.144,0.18-0.278,0.368-0.422,0.557c-0.135,0.179-0.269,0.368-0.404,0.565
						c-0.538,0.772-1.05,1.58-1.526,2.442c-0.063,0.107-0.125,0.215-0.179,0.323c-0.126,0.224-0.242,0.458-0.359,0.691
						c-0.171,0.341-0.332,0.682-0.494,1.023c-1.741,3.833-2.944,8.572-3.456,14.603c-1.481,17.548,4.53,75.534,10.562,80.533
						c0,0-0.924-5.673,11.211-13.311c8.249-5.188,14.038-9.55,22.843-13.868c21.452-10.538,27.466-12.512,27.466-12.512
						C167.405,235.315,161.851,197.238,155.46,176.979z"/>
					<path style="opacity:0.4;fill:#FFFFFF;" d="M155.46,176.979c-0.134-0.431-2.27-7.863-6.274-11.39
						c-0.296-0.26-2.733-2.585-6.786-2.585c-5.421,0-11.929,3.581-19.558,7.755c-0.637,0.35-1.266,0.709-1.885,1.077
						c-0.242,0.135-0.476,0.278-0.709,0.422c-0.287,0.171-0.565,0.35-0.844,0.53c-0.206,0.126-0.413,0.26-0.619,0.404
						c-1.346,0.888-2.63,1.858-3.842,2.917c-0.197,0.171-0.386,0.341-0.575,0.53c-0.763,0.7-1.49,1.454-2.181,2.262
						c-0.126,0.144-0.251,0.287-0.368,0.431c-0.144,0.179-0.296,0.359-0.431,0.538c-0.144,0.18-0.278,0.368-0.422,0.557
						c-0.135,0.179-0.269,0.368-0.404,0.565c-0.538,0.772-1.05,1.58-1.526,2.442c-0.063,0.107-0.125,0.215-0.179,0.323
						c-0.126,0.224-0.242,0.458-0.359,0.691c-0.171,0.341-0.332,0.682-0.494,1.023c-1.741,3.833-2.944,8.572-3.456,14.603
						c-1.481,17.548,4.53,75.534,10.562,80.533c0,0-0.924-5.673,11.211-13.311c8.249-5.188,14.038-9.55,22.843-13.868
						c21.452-10.538,27.466-12.512,27.466-12.512C167.405,235.315,161.851,197.238,155.46,176.979z"/>
				</g>
			</g>
		</g>
		<path id="Shadow_102_" style="opacity:0.1;" d="M235.061,284.209c0.031,1.949-1.278,3.814-3.804,5.648
			c-4.254,3.091-16.671,10.876-26.762,15.854c-5.26,2.599-11.442,6.56-18.504,8.844c-16.923-9.913-46.157-27.265-53.345-33.017
			c-3.845-3.07-6.814-7.775-8.187-13.014c-2.316-8.76-1.38-18.221-1.38-18.221c-6.092-2.346-7.068-9.204-7.911-17.747
			c-2.228-22.589-2.345-50.273,3.616-59.363c0.21-0.147,0.408-0.283,0.618-0.409c0.283-0.178,0.556-0.356,0.849-0.524
			c0.231-0.146,0.461-0.293,0.702-0.419c0.618-0.367,1.247-0.733,1.886-1.079c7.628-4.17,14.135-7.754,19.563-7.754
			c3.269,0,5.491,1.519,6.371,2.221c0.22,0.178,0.356,0.304,0.409,0.356c1.372,1.215,2.536,2.892,3.458,4.579
			c0.136,0.251,0.272,0.503,0.398,0.754c0.032,0.052,0.063,0.115,0.084,0.168c0.115,0.22,0.22,0.44,0.325,0.66
			c0.042,0.084,0.084,0.168,0.126,0.251c0.021,0.053,0.042,0.105,0.063,0.157c0.063,0.136,0.126,0.283,0.189,0.419
			c0.22,0.492,0.419,0.964,0.587,1.404c0.042,0.105,0.084,0.21,0.126,0.304c0.136,0.356,0.252,0.681,0.356,0.974
			c0.031,0.094,0.063,0.189,0.094,0.273c0.031,0.094,0.063,0.189,0.094,0.272c0.031,0.073,0.052,0.147,0.073,0.22
			c0.021,0.073,0.052,0.147,0.073,0.22c0.031,0.094,0.063,0.189,0.084,0.262c0.021,0.063,0.042,0.126,0.053,0.178
			c0.052,0.147,0.084,0.251,0.094,0.293c6.392,20.265,11.944,58.343,21.175,63.939c0,0,0.073,0.01,0.094,0.105
			c11.998,6.643,42.94,24.687,51.501,30.24c4.642,3.007,6.832,5.69,6.842,8.184C235.072,280.259,235.051,283.434,235.061,284.209z"
			/>
		<g id="Bottom_4_">
			<path style="fill:#FFA8A7;" d="M215.633,344.712l0.911,28.031c0,0-2.773,5.941-9.286,6.426c-6.513,0.484-7.548-6.05-7.548-6.05
				l-6.007-30.214L215.633,344.712z"/>
			<g>
				<path style="fill:#263238;" d="M198.526,385.216c0,0-0.282,1.449,0.222,2.662c0.505,1.213,3.892,3.446,5.634,4.336
					c1.742,0.89,3.081,2.246,4.597,4.905c2.082,3.652,5.225,7.584,9.197,9.474c3.972,1.89,9.876,3.184,17.028,2.001
					c7.151-1.183,7.788-5.38,7.788-5.38s0.431-3.951-1.336-4.6C239.889,397.964,198.526,385.216,198.526,385.216z"/>
				<path id="XMLID_3098_" style="fill:#BA68C8;" d="M197.623,380.331c-0.012,1.688,0.203,3.357,0.903,4.885
					c2.061,2.943,7.012,3.969,9.823,7.985c2.811,4.017,6.134,10.193,15.452,12.179c9.317,1.986,16.447-0.885,18.211-3.519
					c1.764-2.634,0.222-5.163-5.721-8.479c-6.307-3.52-13.728-12.786-13.732-12.79c-2.442-3.176-3.475-7.349-4.824-11.067
					c-0.131-0.361-0.344-0.785-0.728-0.799c-0.464-0.017-0.674,0.551-0.92,0.945c-0.417,0.67-1.091,0.858-1.8,1.104
					c-0.808,0.281-1.632,0.515-2.467,0.702c-1.67,0.375-3.382,0.562-5.092,0.552c-0.568-0.003-1.211,0.002-1.598,0.418
					c-0.341,0.366-0.355,0.922-0.323,1.422c0.04,0.631,0.12,1.259,0.241,1.879c0.059,0.305,0.128,0.625,0.032,0.92
					c-0.14,0.432-0.613,0.693-1.067,0.704c-0.454,0.011-0.89-0.181-1.281-0.413c-1.548-0.917-2.684-2.073-3.02-3.841
					c0,0-0.346-1.742-0.355-1.815c-0.505,0.293-0.809,0.754-0.956,1.339c-0.18,0.717-0.122,1.486-0.236,2.215
					C197.882,376.664,197.636,378.5,197.623,380.331z"/>
				<path id="XMLID_3036_" style="opacity:0.3;" d="M197.623,380.331c-0.012,1.688,0.203,3.357,0.903,4.885
					c2.061,2.943,7.012,3.969,9.823,7.985c2.811,4.017,6.134,10.193,15.452,12.179c9.317,1.986,16.447-0.885,18.211-3.519
					c1.764-2.634,0.222-5.163-5.721-8.479c-6.307-3.52-13.728-12.786-13.732-12.79c-2.442-3.176-3.475-7.349-4.824-11.067
					c-0.131-0.361-0.344-0.785-0.728-0.799c-0.464-0.017-0.674,0.551-0.92,0.945c-0.417,0.67-1.091,0.858-1.8,1.104
					c-0.808,0.281-1.632,0.515-2.467,0.702c-1.67,0.375-3.382,0.562-5.092,0.552c-0.568-0.003-1.211,0.002-1.598,0.418
					c-0.341,0.366-0.355,0.922-0.323,1.422c0.04,0.631,0.12,1.259,0.241,1.879c0.059,0.305,0.128,0.625,0.032,0.92
					c-0.14,0.432-0.613,0.693-1.067,0.704c-0.454,0.011-0.89-0.181-1.281-0.413c-1.548-0.917-2.684-2.073-3.02-3.841l-0.355-1.815
					c-0.505,0.293-0.809,0.754-0.956,1.339c-0.18,0.717-0.122,1.486-0.236,2.215C197.882,376.664,197.636,378.5,197.623,380.331z"/>
			</g>
			<path style="fill:#FFA8A7;" d="M255.732,319.892l4.167,39.311c0,0-5.692,5.77-10.406,5.108c-4.714-0.661-5.869-4.219-5.869-4.219
				l-11.652-37.71L255.732,319.892z"/>
			<g>
				<path style="fill:#263238;" d="M243.634,371.186c0,0-0.124,1.471,0.508,2.623c0.632,1.152,4.241,3.006,6.069,3.702
					c1.828,0.697,3.305,1.901,5.099,4.381c2.464,3.406,6.012,6.976,10.165,8.426c4.153,1.45,10.162,2.1,17.144,0.152
					c6.982-1.948,7.163-6.189,7.163-6.189s0.002-3.974-1.825-4.429C286.132,379.397,243.634,371.186,243.634,371.186z"/>
				<path id="XMLID_2998_" style="fill:#BA68C8;" d="M242.209,366.427c0.17,1.679,0.564,3.316,1.425,4.759
					c2.366,2.703,7.399,3.189,10.627,6.879c3.228,3.69,7.198,9.472,16.675,10.441c9.477,0.969,16.256-2.654,17.725-5.463
					c1.47-2.81-0.337-5.156-6.602-7.812c-6.65-2.818-15.028-11.23-15.032-11.234c-2.771-2.894-4.248-6.931-5.99-10.481
					c-0.169-0.345-0.427-0.744-0.81-0.716c-0.464,0.034-0.611,0.62-0.812,1.039c-0.342,0.711-0.992,0.971-1.67,1.292
					c-0.773,0.366-1.568,0.688-2.377,0.964c-1.619,0.553-3.301,0.923-5.003,1.098c-0.565,0.058-1.204,0.133-1.544,0.588
					c-0.299,0.401-0.253,0.955-0.168,1.448c0.107,0.623,0.255,1.238,0.442,1.842c0.092,0.297,0.194,0.607,0.131,0.912
					c-0.093,0.445-0.535,0.755-0.985,0.815c-0.451,0.06-0.904-0.085-1.318-0.273c-1.638-0.745-3.066-1.688-3.59-3.409
					c0,0-0.275-0.92-0.555-1.755c-0.471,0.346-0.543,0.741-0.626,1.339c-0.101,0.732,0.039,1.491,0.005,2.228
					C242.072,362.754,242.025,364.605,242.209,366.427z"/>
				<path id="XMLID_2997_" style="opacity:0.3;" d="M242.209,366.427c0.17,1.679,0.564,3.316,1.425,4.759
					c2.366,2.703,7.399,3.189,10.627,6.879c3.228,3.69,7.198,9.472,16.675,10.441c9.477,0.969,16.256-2.654,17.725-5.463
					c1.47-2.81-0.337-5.156-6.602-7.812c-6.65-2.818-15.028-11.23-15.032-11.234c-2.771-2.894-4.248-6.931-5.99-10.481
					c-0.169-0.345-0.427-0.744-0.81-0.716c-0.464,0.034-0.611,0.62-0.812,1.039c-0.342,0.711-0.992,0.971-1.67,1.292
					c-0.773,0.366-1.568,0.688-2.377,0.964c-1.619,0.553-3.301,0.923-5.003,1.098c-0.565,0.058-1.204,0.133-1.544,0.588
					c-0.299,0.401-0.253,0.955-0.168,1.448c0.107,0.623,0.255,1.238,0.442,1.842c0.092,0.297,0.194,0.607,0.131,0.912
					c-0.093,0.445-0.535,0.755-0.985,0.815c-0.451,0.06-0.904-0.085-1.318-0.273c-1.638-0.745-3.066-1.688-3.59-3.409
					c0,0-0.275-0.92-0.555-1.755c-0.471,0.346-0.543,0.741-0.626,1.339c-0.101,0.732,0.039,1.491,0.005,2.228
					C242.072,362.754,242.025,364.605,242.209,366.427z"/>
			</g>
			<path style="fill:#37474F;" d="M127.288,239.957l22.944-2.518l44.425,2.4c0,0,26.685,17.065,46.049,30.685
				c5.631,3.961,11.59,8.292,12.582,16.588c1.406,11.768,5.193,53.514,5.193,53.514c-3.882,4.293-13.796,6.044-19.876,4.876
				c-1.858-4.817-6.393-19.674-8.554-26.287c-3.355-10.267-4.594-21.522-4.594-21.522l-28.251-17.712
				c6.222,6.334,8.259,8.39,11.524,11.683c2.862,2.887,4.749,6.522,5.592,15.888c1.671,18.556,1.784,44.016,1.992,49.687
				c-2.34,3.275-11.817,7.578-19.31,3.81c-2.564-9.935-3.717-14.804-5.929-24.057c-4.282-17.908-2.753-23.877-3.61-27.741
				c0,0-14.393-7.055-30.06-17.366c-6.664-4.386-15.97-9.16-20.71-14.089C127.872,268.62,127.875,255.171,127.288,239.957z"/>
			<path style="fill:#263238;" d="M197.207,279.98l-15.949-18.114c0,0,8.513-2.862,12.966-13.91c0,0-0.994,10.471-7.269,15.072
				l7.465,10.125l31.039,24.54L197.207,279.98z"/>
			<path style="fill:#FAFAFA;" d="M215.913,401.974c0.281-4.479,4.023-9.156,11.091-10.664c7.069-1.507,10.759,1.599,12.422,2.826
				c1.663,1.228,6.341,5.49,2.027,9.076s-9.512,3.846-14.917,3.118C221.131,405.603,217.399,403.749,215.913,401.974z"/>
			<path style="fill:#FAFAFA;" d="M262.685,385.948c-0.057-4.487,3.632-10.386,10.567-12.421c6.935-2.035,10.54,1.165,12.291,2.264
				c1.751,1.099,6.736,4.997,2.704,8.898c-4.032,3.901-9.202,4.502-14.656,4.584C269.927,389.328,264.301,387.607,262.685,385.948z"
				/>
		</g>
		<g id="Top_2_">
			<g id="Arm_21_">
				<g>
					<path style="fill:#FFA8A7;" d="M194.957,160.626c-4.275-4.244-10.166-8.098-13.984-8.549c-5.826-0.689-9.656,0.116-9.656,0.116
						l14.834,32.961c0,0,20.806,16.857,31.17,24.107l3.307-23.26C220.627,186,202.193,167.81,194.957,160.626z"/>
				</g>
				<path style="fill:#BA68C8;" d="M188.259,154.265c-4.796-3.529-9.683-3.891-17.369-2.982l12.754,33.208l15.26,10.828
					c0,0-0.105-3.829,2.747-9.136c3.71-6.904,9.945-9.099,9.945-9.099S193.056,157.794,188.259,154.265z"/>
				<path style="opacity:0.2;" d="M188.259,154.265c-4.796-3.529-9.683-3.891-17.369-2.982l12.754,33.208l15.26,10.828
					c0,0-0.105-3.829,2.747-9.136c3.71-6.904,9.945-9.099,9.945-9.099S193.056,157.794,188.259,154.265z"/>
			</g>
			<path id="Chest" style="fill:#BA68C8;" d="M189.842,178.75c0.694-17.596-9.544-26.164-18.952-27.467c0,0-3.861,0.537-7.611,1.253
				c-7.394,1.412-23.174,6.082-29.788,9.813c-5.629,3.176-6.168,6.898-7.163,16.151c-0.71,6.601-1.166,11.484-1.039,31.51
				c0.094,14.648,1.86,29.661,2.243,39.773c12.802,9.037,53.547,7.81,68.294-9.194c-5.368-9.404-8.604-16.241-8.361-25.257
				C187.901,199.191,189.492,187.636,189.842,178.75z"/>
			<g id="Head_1_">
				<g id="XMLID_2994_">
					<g>
						<path style="fill:#455A64;" d="M193.152,105.57c-0.014-0.1-0.033-0.2-0.057-0.301c-0.517-2.186-2.998,0.166-4.407,0.081
							c0.178-0.784,0.959-1.312,1.306-2.03c0.439-0.908,0.728-2.048,0.853-3.049c0.159-1.265,0.326-3.403-0.157-4.613
							c-1.247,0.462-2.395,1.184-3.664,1.629c-2.17,0.762-4.065,0.901-6.353,0.886c-4.778-0.032-9.504-0.724-14.232-1.303
							c-3.122-0.382-6.325-0.557-9.436,0.01c-2.594,0.472-5.601,1.519-7.653,3.208c-3.056,2.516-4.007,4.74-4.075,9.227
							c-2.898,1.748-3.557,5.204-3.637,9.093c-0.1,4.816,2.363,9.238,4.325,13.484c0,0,4.986,10.79,6.163,12.905
							c1.366,2.456,2.562,4.513,2.562,4.513l-0.821-9.087c3.298-0.418,5.988,0.504,9.087-0.777c2.924-1.21,5.73-2.69,8.42-4.353
							c2.812-1.738,5.499-3.673,8.088-5.728c0.571-0.453,1.137-1.073,1.779-1.418c0.479-0.258,0.934-0.255,1.348-0.641
							c0.842-0.784,1.095-2.263,1.528-3.286c0.285-0.672,0.426-1.64,0.828-2.239c0.382-0.57,1.167-0.807,1.75-1.157
							c1.861-1.119,3.095-2.558,3.83-4.62c0.493-1.384,0.758-3.712-0.203-4.952C191.437,109.442,193.449,107.718,193.152,105.57z"/>
						<path style="fill:#FFA8A7;" d="M160.791,112.318c0.104,2.842-1.38,9.186-5.876,11.549c0.555,3.168,0.837,4.811,0.303,7.983
							c-0.115,0.68-0.285,1.365-0.653,1.949c-0.368,0.583-0.963,1.055-1.649,1.131c-0.922,0.102-1.324-0.447-1.636-1.162
							c-0.403-0.922-0.984-1.776-1.506-2.643c-0.252-0.419-0.541-0.682-0.86-1.008c-1.456-1.25-5.686-2.684-7.456,1.822
							c-1.832,4.668,2.443,9.6,5.846,10.374c4.511,1.027,5.741-2.22,5.741-2.22l-2.386,18.996
							c1.798,4.802,11.76,11.433,18.965,10.234c7.204-1.199,3.439-7.199,0.889-10.591l1.344-5.999c0,0,6.503,0.499,10.321-0.387
							c2.98-0.692,5.351-3.597,6.429-8.216c2.057-8.812,1.207-21.174-0.103-26.608c-1.292-5.36-2.602-6.31-3.627-7.54
							c-0.32,1.612-2.131,3.584-6.941,4.577C171.102,115.968,165.31,113.991,160.791,112.318z"/>
					</g>
					<path id="XMLID_2995_" style="fill:#F28F8F;" d="M171.857,152.732c-5.308-0.832-9.962-2.035-12.862-3.815
						c-2.128-1.306-3.801-5.059-4.291-6.377c0,0-0.173,4.969,2.604,7.903c3.942,4.166,13.94,5.004,13.94,5.004L171.857,152.732z"/>
				</g>
				<g>
					<path id="XMLID_2993_" style="fill:#455A64;" d="M167.994,121.636l-4.694,2.23c-0.59-1.345-0.018-2.936,1.278-3.551
						C165.874,119.699,167.404,120.291,167.994,121.636z"/>
					<g>
						<path id="XMLID_2992_" style="fill:#B16668;" d="M168.626,139.984l6.663,2.459c-0.647,1.91-2.664,2.907-4.505,2.229
							C168.945,143.992,167.978,141.894,168.626,139.984z"/>
						<path style="fill:#F28F8F;" d="M172.578,144.812c-0.091-1.714-1.536-3.046-3.258-2.983c-0.281,0.01-0.547,0.069-0.804,0.147
							c0.252,1.204,1.069,2.252,2.269,2.695C171.383,144.892,171.995,144.919,172.578,144.812z"/>
					</g>
					<path id="XMLID_2991_" style="fill:#455A64;" d="M186.324,123.387l-4.456-2.463c0.641-1.223,2.158-1.663,3.389-0.984
						C186.487,120.62,186.965,122.163,186.324,123.387z"/>
					<polygon id="XMLID_2990_" style="fill:#F28F8F;" points="175.209,138.514 182.192,136.222 174.296,123.387 					"/>
					<path style="fill:#263238;" d="M181.287,127.347c0,1.131,0.916,2.047,2.046,2.047c1.13,0,2.047-0.916,2.047-2.047
						c0-1.13-0.916-2.046-2.047-2.046C182.203,125.3,181.287,126.217,181.287,127.347z"/>
					<path style="fill:#263238;" d="M165.53,127.773c0,1.13,0.916,2.047,2.046,2.047c1.13,0,2.047-0.916,2.047-2.047
						c0-1.13-0.916-2.046-2.047-2.046C166.447,125.727,165.53,126.643,165.53,127.773z"/>
				</g>
			</g>
		</g>
		<g id="Desk_3_">
			<g>
				<g>
					<polygon style="fill:#263238;" points="221.083,343.979 221.082,446.976 217.64,444.989 217.64,341.992 					"/>
					<polygon style="fill:#37474F;" points="221.082,343.979 221.082,446.976 224.524,444.989 224.524,341.992 					"/>
				</g>
				<g>
					<polygon style="fill:#263238;" points="123.8,287.72 123.8,390.716 120.358,388.729 120.358,285.732 					"/>
					<polygon style="fill:#37474F;" points="123.8,287.72 123.8,390.716 127.242,388.729 127.242,285.732 					"/>
				</g>
				<g>
					<polygon style="fill:#263238;" points="387.743,247.763 387.742,350.76 384.3,348.773 384.3,245.776 					"/>
					<polygon style="fill:#37474F;" points="387.742,247.763 387.742,350.76 391.184,348.773 391.184,245.776 					"/>
				</g>
				<polygon style="fill:#37474F;" points="221.084,337.848 221.083,350.109 120.358,291.862 120.358,279.602 				"/>
				<polygon style="fill:#455A64;" points="221.083,350.109 391.185,251.905 391.186,239.645 221.083,337.848 				"/>
			</g>
			<g id="Desk_4_">
				<g id="XMLID_3662_">
					<polygon id="XMLID_3663_" style="fill:#BA68C8;" points="221.635,335.563 116.347,274.774 289.83,174.943 395.118,235.731 
											"/>
				</g>
				<g id="XMLID_3659_" style="opacity:0.8;">
					<polygon id="XMLID_3661_" style="fill:#FFFFFF;" points="221.635,335.563 116.347,274.774 289.83,174.943 395.118,235.731 
											"/>
				</g>
				<g id="XMLID_3657_">
					<polygon id="XMLID_3658_" style="fill:#BA68C8;" points="116.347,274.753 116.347,283.404 221.635,344.167 221.635,335.541 
											"/>
				</g>
				<g id="XMLID_3655_" style="opacity:0.5;">
					<polygon id="XMLID_3656_" style="fill:#FFFFFF;" points="116.347,274.753 116.347,283.404 221.635,344.167 221.635,335.541 
											"/>
				</g>
				<g id="XMLID_3653_">
					<polygon id="XMLID_3654_" style="fill:#BA68C8;" points="221.635,344.167 395.118,244.425 395.118,235.709 221.635,335.541 
											"/>
				</g>
				<g id="XMLID_3648_" style="opacity:0.65;">
					<polygon id="XMLID_3652_" style="fill:#FFFFFF;" points="221.635,344.167 395.118,244.425 395.118,235.709 221.635,335.541 
											"/>
				</g>
			</g>
		</g>
		<g>
			<path style="fill:#F28F8F;" d="M220.627,186c-1.847,6.815-1.233,14.57-1.233,14.57s-3.586-9.099-1.213-16.984L220.627,186z"/>
			<path style="fill:#FFA8A7;" d="M256.69,128.306c0.056-0.993-0.686-1.234-1.481-1.2c-1.172,0.051-2.283,0.582-3.213,1.297
				c-1.513,1.164-2.568,2.764-3.879,4.126c-1.997,2.074-5.197,5.451-8.028,6.21c-0.576,0.154-1.82,0.297-1.271-0.653
				c0.717-1.24,1.541-2.432,2.035-3.776c0.494-1.344,0.622-2.906-0.056-4.168c-0.204-0.38-0.499-0.74-0.907-0.881
				c-0.578-0.2-0.83,0.122-1.111,0.515c-0.295,0.414-0.662,0.777-1.011,1.153c-0.72,0.773-1.438,1.548-2.146,2.332
				c-4.135,4.573-8.111,9.65-9.467,15.801c-0.197,0.893-0.94,7.665-1.571,11.554c-0.413,3.493-3.957,25.384-3.957,25.384
				l-3.307,23.26c9.352,6.542,14.676,3.281,16.221,0.625c2.561-4.404,4.878-6.334,5.179-32.598c0.047-2.428,0.019-4.856,0.054-7.284
				c0.029-1.974,0.094-6.22,0.764-9.32c0.67-3.099,3.076-4.057,4.633-5.144c2.846-1.986,3.513-2.606,5.885-5.139
				c1.562-1.667,2.949-3.512,4.023-5.532c0.45-0.846,1.257-2.092,1.26-3.074c0.003-0.918-0.435-1.787-0.331-2.747
				c0.117-1.078,0.739-2.073,0.737-3.157c-0.002-0.852-0.388-1.65-0.608-2.473c-0.349-1.309,0.206-2.307,0.842-3.414
				C256.289,129.466,256.655,128.924,256.69,128.306z"/>
			<path style="fill:#F28F8F;" d="M237.782,142.287c-0.159,3.553-2.227,8.176-3.759,9.812c0,0,2.642-1.866,3.581-4.426
				C238.634,144.867,238.354,143.52,237.782,142.287z"/>
		</g>
		<g id="Laptop_1_">
			<g id="Laptop">
				<path id="XMLID_3288_" style="opacity:0.2;" d="M298.703,249.864l-43.307-25.001c-0.77-0.444-1.719-0.444-2.489,0
					l-75.131,43.383c-0.369,0.213-0.369,0.745,0,0.958l43.713,25.242L298.703,249.864z"/>
				<g id="XMLID_2986_">
					<g id="XMLID_3244_">
						<path id="XMLID_3285_" style="fill:#37474F;" d="M295.469,244.598v0.973c0,1.426-0.76,2.746-1.999,3.465l-69.983,40.403
							c-0.613,0.36-1.312,0.53-1.992,0.53c-0.693,0-1.386-0.173-2.013-0.533l-38.147-21.952c-1.226-0.707-1.995-2.039-1.995-3.465
							v-1.346h0.009v0.013c0,0.173,0.08,0.333,0.253,0.44l41.893,24.192L295.469,244.598z"/>
					</g>
					<g id="XMLID_3242_">
						<path id="XMLID_3243_" style="fill:#455A64;" d="M295.474,244.594l-41.496-23.955c-0.738-0.426-1.647-0.426-2.385,0
							l-71.988,41.568c-0.354,0.204-0.354,0.714,0,0.918l41.885,24.186L295.474,244.594z"/>
					</g>
					<g id="XMLID_3240_">
						<polygon id="XMLID_3241_" style="fill:#37474F;" points="221.108,283.788 198.726,270.88 264.17,233.096 286.667,245.937 
													"/>
					</g>
					<g id="XMLID_3238_">
						<polygon id="XMLID_3239_" style="fill:#263238;" points="286.666,245.936 285.812,246.428 264.168,234.079 199.585,271.374 
							198.73,270.882 264.168,233.095 						"/>
					</g>
					<g id="XMLID_3236_">
						<polygon id="XMLID_3237_" style="fill:#263238;" points="210.107,247.88 210.52,248.118 221.49,254.45 240.998,243.187 
							241.404,242.955 230.022,236.385 						"/>
					</g>
					<g id="XMLID_3234_">
						<polygon id="XMLID_3235_" style="fill:#37474F;" points="210.52,248.118 221.49,254.45 240.998,243.187 230.022,236.854 
													"/>
					</g>
					<g id="XMLID_2987_">
						<path id="XMLID_2988_" style="fill:#263238;" d="M221.49,287.31v2.662c0.686,0,1.38-0.175,1.996-0.532l69.984-40.404
							c1.24-0.714,2.003-2.038,2.003-3.467v-0.974L221.49,287.31z"/>
					</g>
				</g>
			</g>
			<g id="Character_27_">
				<g id="Arm_20_">
					<g>
						<path style="fill:#FFA8A7;" d="M183.947,257.534c0,0,0.978,0.505,2.578,1.132c1.432,0.561,2.71,1.705,6.134,2.813
							c4.058,1.313,9.298-0.089,12.844-0.225c3.546-0.136,9.526,1.593,12.793,2.976c3.267,1.383,7.288-3.619,8.927-2.986
							c1.639,0.633,4.512-0.656,1.538-3.694c-2.974-3.038-7.289-7.254-10.95-8.528c-0.472-0.159-1.182-0.502-2.574-0.843
							c1.272-0.231,2.549-0.3,3.792-0.699c1.235-0.395,2.417-1.057,3.226-2.069c0.326-0.407,0.561-1.062,0.163-1.398
							c-0.144-0.121-0.333-0.192-0.521-0.2c-2.756-0.125-4.922-0.586-7.423-0.804c-1.092-0.095-2.319-0.26-3.377,0.011
							c-1.031,0.264-2.06,0.547-3.072,0.881c-4.596,1.513-10.775,1.408-14.23,1.337c-1.423-0.029-4.755-0.575-4.755-0.575
							c-0.841-0.082-1.686,1.219-3.253,4.562C183.321,254.486,183.947,257.534,183.947,257.534z"/>
						<path style="fill:#F28F8F;" d="M213.739,246.206c-2.382-0.278-5.027,0.736-5.027,0.736s2.945,0.106,6.525,1.237
							c1.272-0.231,2.549-0.3,3.792-0.699c1.09-0.349,2.138-0.907,2.926-1.729C219.952,247.068,216.12,246.484,213.739,246.206z"/>
					</g>
				</g>
				<path style="fill:#FFA8A7;" d="M189.627,260.267c-4.456-2.311-26.788-4.929-35.132-7.181
					c-7.347-1.983-11.507-3.474-14.758-4.738s-5.274-3.104-7.268-10.836c-1.97-7.64-10.439-39.656-11.388-49.14
					c-0.948-9.484,0.076-14.483,3.447-18.904c2.47-3.24,9.1-6.464,9.1-6.464s7.912,3.95,10.757,15.335
					c2.845,11.386,2.709,17.629,2.709,17.629l8.064,34.61c0,0,10.061,4.206,17.416,7.277c7.954,3.321,14.904,6.54,18.462,7.105
					C194.595,245.524,189.627,260.267,189.627,260.267z"/>
				<g>
					<path style="fill:#BA68C8;" d="M133.903,162.123c-7.1,3.477-10.74,6.662-12.712,12.35c-1.972,5.688-0.91,13.802,0.455,21.006
						c1.365,7.204,4.55,20.4,4.55,20.4s3.64,1.062,13.195-1.365s11.224-5.915,11.224-5.915l-2.806-14.191
						C147.81,194.408,147.904,167.594,133.903,162.123z"/>
					<path style="opacity:0.2;" d="M133.903,162.123c-7.1,3.477-10.74,6.662-12.712,12.35c-1.972,5.688-0.91,13.802,0.455,21.006
						c1.365,7.204,4.55,20.4,4.55,20.4s3.64,1.062,13.195-1.365s11.224-5.915,11.224-5.915l-2.806-14.191
						C147.81,194.408,147.904,167.594,133.903,162.123z"/>
				</g>
			</g>
			<g>
				<g id="XMLID_2980_">
					<path id="XMLID_2982_" style="fill:#37474F;" d="M222.618,287.9c1.324,0.511,2.83,0.413,4.084-0.316l69.676-40.228
						c1.226-0.707,2.066-1.919,2.305-3.313l7.628-45.489c0.042-0.259,0.063-0.519,0.063-0.777c0-1.268-0.504-2.48-1.401-3.369
						l-72.408,41.811c-0.904,0.525-1.527,1.422-1.702,2.452L222.618,287.9z"/>
				</g>
				<g id="XMLID_2978_">
					<path id="XMLID_2979_" style="fill:#455A64;" d="M221.49,287.312l0.477,0.273c0.21,0.119,0.427,0.224,0.651,0.316l8.245-49.23
						c0.175-1.03,0.799-1.926,1.702-2.452l72.408-41.811c-0.28-0.28-0.609-0.525-0.966-0.736l-72.555,41.888
						c-0.904,0.525-1.527,1.422-1.702,2.452L221.49,287.312z"/>
				</g>
				<path id="XMLID_2977_" style="fill:#263238;" d="M231.535,237.147l-1.123-0.648c-0.332,0.442-0.569,0.954-0.664,1.514
					l-8.259,49.299l0.477,0.273c0.21,0.119,0.427,0.224,0.651,0.315l8.245-49.229C230.958,238.107,231.198,237.592,231.535,237.147z
					"/>
				<g id="XMLID_2834_">
					<path id="XMLID_2839_" style="fill:#BA68C8;" d="M261.86,245.908c0.511-3.045,3.655-7.091,7.023-9.035
						c3.368-1.944,5.684-1.051,5.174,1.994c-0.511,3.046-3.655,7.091-7.023,9.035C263.665,249.846,261.349,248.953,261.86,245.908z"
						/>
				</g>
			</g>
		</g>
	</g>
</g>
<g id="Trash_basket">
	<g id="Trash_can">
		<g>
			<g>
				<path style="fill:#BA68C8;" d="M59.208,400.637c0-8.729,12.586-15.806,28.112-15.806s28.112,7.076,28.112,15.806
					c0,0.349,0,1.725,0,2.073c0,8.73-12.586,15.806-28.112,15.806s-28.112-7.076-28.112-15.806
					C59.208,402.361,59.208,400.985,59.208,400.637z"/>
				<path style="opacity:0.6;fill:#FFFFFF;" d="M59.208,400.637c0-8.729,12.586-15.806,28.112-15.806s28.112,7.076,28.112,15.806
					c0,0.349,0,1.725,0,2.073c0,8.73-12.586,15.806-28.112,15.806s-28.112-7.076-28.112-15.806
					C59.208,402.361,59.208,400.985,59.208,400.637z"/>
				<path style="opacity:0.1;" d="M59.208,400.637c0-8.729,12.586-15.806,28.112-15.806s28.112,7.076,28.112,15.806
					c0,0.349,0,1.725,0,2.073c0,8.73-12.586,15.806-28.112,15.806s-28.112-7.076-28.112-15.806
					C59.208,402.361,59.208,400.985,59.208,400.637z"/>
			</g>
			<g>
				<path style="fill:#BA68C8;" d="M59.208,400.637c0,8.73,12.586,15.806,28.112,15.806c15.526,0,28.112-7.076,28.112-15.806
					c0-8.729-12.586-15.806-28.112-15.806C71.794,384.831,59.208,391.908,59.208,400.637z"/>
				<path style="opacity:0.75;fill:#FFFFFF;" d="M59.208,400.637c0,8.73,12.586,15.806,28.112,15.806
					c15.526,0,28.112-7.076,28.112-15.806c0-8.729-12.586-15.806-28.112-15.806C71.794,384.831,59.208,391.908,59.208,400.637z"/>
				<path style="opacity:0.05;" d="M59.208,400.637c0,8.73,12.586,15.806,28.112,15.806c15.526,0,28.112-7.076,28.112-15.806
					c0-8.729-12.586-15.806-28.112-15.806C71.794,384.831,59.208,391.908,59.208,400.637z"/>
			</g>
		</g>
		<g>
			<g>
				<path style="fill:#FAFAFA;" d="M113.423,355.102c0.293,0,0.549-0.214,0.593-0.513l3.663-26.815
					c0.048-0.328-0.179-0.633-0.508-0.681c-0.326-0.04-0.631,0.178-0.681,0.508l-3.663,26.815c-0.048,0.328,0.179,0.633,0.508,0.681
					C113.364,355.1,113.394,355.102,113.423,355.102z"/>
			</g>
			<g>
				<path style="fill:#FAFAFA;" d="M107.506,361.36c0.304,0,0.564-0.23,0.596-0.538l3.612-34.555
					c0.035-0.329-0.205-0.625-0.534-0.659c-0.329-0.04-0.625,0.204-0.659,0.535l-3.613,34.555c-0.035,0.33,0.205,0.625,0.535,0.659
					C107.464,361.359,107.485,361.36,107.506,361.36z"/>
			</g>
			<g>
				<path style="fill:#FAFAFA;" d="M100.169,364.912c0.315,0,0.579-0.245,0.599-0.563l2.678-42.322
					c0.021-0.331-0.231-0.616-0.561-0.637c-0.352-0.039-0.616,0.232-0.637,0.561l-2.678,42.322c-0.021,0.33,0.231,0.615,0.561,0.636
					C100.144,364.912,100.157,364.912,100.169,364.912z"/>
			</g>
			<g>
				<path style="fill:#FAFAFA;" d="M91.73,366.674c0.326,0,0.593-0.26,0.601-0.587l0.877-45.962
					c0.007-0.332-0.257-0.606-0.587-0.613c-0.38-0.043-0.606,0.257-0.613,0.587l-0.877,45.962c-0.007,0.332,0.257,0.606,0.588,0.613
					C91.722,366.674,91.727,366.674,91.73,366.674z"/>
			</g>
		</g>
		<g>
			<g>
				<path style="fill:#FAFAFA;" d="M60.522,355.102c-0.293,0-0.549-0.214-0.593-0.513l-3.663-26.815
					c-0.048-0.328,0.179-0.633,0.508-0.681c0.326-0.04,0.631,0.178,0.681,0.508l3.663,26.815c0.048,0.328-0.179,0.633-0.507,0.681
					C60.581,355.1,60.551,355.102,60.522,355.102z"/>
			</g>
			<g>
				<path style="fill:#FAFAFA;" d="M66.438,361.36c-0.303,0-0.564-0.23-0.595-0.538l-3.613-34.555
					c-0.035-0.329,0.205-0.625,0.535-0.659c0.329-0.04,0.625,0.204,0.659,0.535l3.613,34.555c0.035,0.33-0.205,0.625-0.535,0.659
					C66.481,361.359,66.459,361.36,66.438,361.36z"/>
			</g>
			<g>
				<path style="fill:#FAFAFA;" d="M73.776,364.912c-0.315,0-0.579-0.245-0.599-0.563l-2.678-42.322
					c-0.021-0.331,0.231-0.616,0.561-0.637c0.352-0.039,0.615,0.232,0.637,0.561l2.678,42.322c0.021,0.33-0.231,0.615-0.562,0.636
					C73.8,364.912,73.788,364.912,73.776,364.912z"/>
			</g>
			<g>
				<path style="fill:#FAFAFA;" d="M82.214,366.674c-0.326,0-0.593-0.26-0.6-0.587l-0.877-45.962
					c-0.007-0.332,0.257-0.606,0.587-0.613c0.38-0.043,0.606,0.257,0.613,0.587l0.877,45.962c0.007,0.332-0.257,0.606-0.587,0.613
					C82.222,366.674,82.218,366.674,82.214,366.674z"/>
			</g>
		</g>
		<path style="fill:#FAFAFA;" d="M113.404,372.942c-1.527-1.872-3.578-3.642-4.086-6.112c-0.387-1.885-0.321-3.966-1.436-5.534
			c-0.753-1.059-1.937-1.713-2.905-2.58c-2.709-2.425-3.517-6.726-1.874-9.969c-1.725-0.647-3.669,0.225-5.066,1.426
			c-1.397,1.202-2.495,2.74-3.996,3.808c-2.045,1.455-4.62,1.895-6.939,2.854c-2.319,0.959-4.623,2.836-4.689,5.345
			c-0.06,2.297,1.729,4.833,0.36,6.679c-2.109,2.843-7.593,0.214-7.371,5.308c0.085,1.939,0.768,2.917-1.236,4.286
			c-2.084,1.423-4.891,0.631-6.956,2.055c-1.114,0.769-1.727,2.059-2.292,3.289c-0.67,1.461-1.342,2.925-1.869,4.443
			c-1.375,3.958-1.728,8.358-0.429,12.341c0.569,1.744,1.525,4.304,3.369,4.887c2.485,0.787,4.812-0.014,7.071,1.852
			c0.904,0.747,1.578,1.739,2.462,2.51c1.603,1.397,3.796,1.963,5.921,1.98c1.71,0.014,3.357-0.63,5.023-0.657
			c1.22-0.02,2.106,0.448,3.309,0.733c2.464,0.583,5.553,0.574,7.407-1.423c1.332-1.435,1.798-3.706,3.542-4.595
			c1.829-0.932,4.011,0.167,6.064,0.115c3.449-0.087,6.005-3.517,6.556-6.922c0.551-3.406-0.331-6.855-0.758-10.28
			c-0.565-4.536,2.721-7.895,2.56-12.06C115.092,375.296,114.348,374.1,113.404,372.942z"/>
		<path style="fill:#EBEBEB;" d="M113.404,372.942c-0.632-0.775-1.35-1.534-2.015-2.331c-0.673,2.162-2.17,3.976-3.017,6.077
			c-1.013,2.514-1.043,5.299-1.06,8.009c-0.018,2.947-0.035,5.895-0.052,8.842c-0.003,0.536-0.027,1.126-0.391,1.519
			c-0.703,0.76-1.99,0.179-2.697-0.577c-0.708-0.756-1.409-1.742-2.444-1.761c-1.22-0.022-2.212,1.369-3.409,1.128
			c-1.082-0.219-1.449-1.693-1.009-2.706c0.44-1.012,1.376-1.701,2.158-2.48c0.783-0.779,1.474-1.85,1.212-2.923
			c-3.355-0.427-6.27,2.138-8.674,4.517c-1.059,1.048-2.208,2.514-1.588,3.87c0.472,1.031,1.782,1.44,2.342,2.426
			c0.644,1.136,0.014,2.652-1.038,3.426c-1.052,0.773-2.4,0.991-3.691,1.186c-0.897,0.136-1.825,0.27-2.703,0.039
			c-0.878-0.23-1.701-0.924-1.787-1.828c-0.086-0.904,0.859-1.832,1.707-1.507c-1.569-1.147-3.27-2.341-5.212-2.391
			c-1.942-0.05-4.034,1.643-3.609,3.54c-2.574-0.057-5.148-0.114-7.723-0.171c1.057-1.524-0.199-3.565-1.505-4.883
			c-0.805-0.813-1.667-1.608-2.182-2.629c-0.515-1.021-0.611-2.349,0.098-3.248c0.663-0.84,1.956-1.267,2.111-2.326
			c0.124-0.848-0.657-1.621-1.5-1.774c-0.299-0.054-0.599-0.036-0.897,0.008c-0.64,1.396-1.277,2.796-1.781,4.246
			c-1.375,3.958-1.729,8.358-0.429,12.341c0.569,1.744,1.525,4.304,3.369,4.888c2.485,0.787,4.812-0.014,7.071,1.852
			c0.904,0.747,1.578,1.739,2.462,2.509c1.603,1.397,3.796,1.963,5.921,1.98c1.71,0.014,3.357-0.63,5.023-0.657
			c1.22-0.019,2.106,0.448,3.309,0.733c2.464,0.583,5.553,0.574,7.407-1.423c1.332-1.435,1.798-3.706,3.542-4.595
			c1.829-0.932,4.012,0.167,6.064,0.115c3.449-0.087,6.005-3.517,6.556-6.922c0.551-3.406-0.331-6.855-0.758-10.28
			c-0.565-4.536,2.721-7.895,2.56-12.06C115.092,375.296,114.348,374.1,113.404,372.942z"/>
		<path style="fill:#EBEBEB;" d="M74.993,383.074c0.471,0.659,0.634,1.53,0.431,2.315c-0.104,0.401-0.297,0.783-0.331,1.195
			c-0.034,0.413,0.159,0.893,0.561,0.996c0.327,0.084,0.654-0.107,0.95-0.271c0.793-0.442,1.722-0.749,2.606-0.543
			c0.884,0.207,1.654,1.074,1.491,1.967c0.599-1.127,0.729-2.577,0.037-3.65c-0.692-1.072-2.326-1.518-3.317-0.715
			c0.367-0.993-0.321-2.152-1.292-2.573c-0.889-0.385-2.002-0.295-2.864,0.11C73.918,382.157,74.564,382.474,74.993,383.074z"/>
		<path style="fill:#EBEBEB;" d="M87.761,374.897c-0.32,0.22-0.689,0.366-0.993,0.608c-0.304,0.242-0.543,0.628-0.454,1.006
			c0.69-0.112,1.296,0.466,1.678,1.051c0.382,0.586,0.713,1.268,1.342,1.576c0.508,0.249,1.144,0.21,1.593,0.556
			c0.665,0.513,0.551,1.529,0.371,2.35c1.092-0.733,2.183-1.466,3.275-2.198c0.191-0.129,0.387-0.261,0.526-0.444
			c0.413-0.542,0.188-1.38-0.327-1.826c-0.515-0.446-1.227-0.582-1.907-0.628c-0.68-0.046-1.374-0.02-2.029-0.21
			c-0.164-0.048-0.345-0.13-0.394-0.294c-0.079-0.267,0.237-0.469,0.498-0.568c1.051-0.4,2.103-0.799,3.155-1.199
			c0.212-0.162,0.157-0.52-0.038-0.701c-0.195-0.181-0.474-0.234-0.737-0.279c-1.969-0.336-4.08-0.933-6.064-0.986
			C87.33,373.549,89.348,373.807,87.761,374.897z"/>
		<path style="fill:#EBEBEB;" d="M95.56,361.76c-1.688-0.258-3.681,0.616-4.054,2.282c1.396,0.086,2.463,1.231,3.372,2.294
			c0.483,0.564,0.966,1.129,1.449,1.693c0.458,0.535,0.932,1.103,1.064,1.795c0.122,0.638-0.049,1.369,0.334,1.894
			c0.251,0.344,0.677,0.502,1.079,0.643c0.857,0.3,1.884,0.578,2.61,0.032c0.61-0.459,0.737-1.359,0.503-2.085
			c-0.234-0.727-0.752-1.321-1.258-1.893c1.542-0.332,3.183-0.184,4.641,0.418c0.358,0.148,0.758,0.325,1.117,0.179
			c0.292-0.119,0.467-0.425,0.549-0.73c0.267-0.993-0.264-2.079-1.09-2.689c-0.827-0.611-1.89-0.815-2.918-0.829
			C99.955,364.721,98.415,362.197,95.56,361.76z"/>
		<path style="fill:#FAFAFA;" d="M114.016,402.173l7.333-50.119c0.048-0.328-0.179-0.633-0.508-0.681
			c-0.326-0.04-0.631,0.178-0.681,0.507l-7.333,50.12c-0.048,0.328,0.179,0.633,0.508,0.681c0.03,0.004,0.059,0.006,0.088,0.006
			C113.716,402.686,113.971,402.472,114.016,402.173"/>
		<g>
			<path style="fill:#FAFAFA;" d="M107.506,408.944c0.304,0,0.564-0.23,0.596-0.538l5.238-50.119
				c0.035-0.33-0.205-0.625-0.535-0.659c-0.329-0.04-0.625,0.204-0.659,0.535l-5.238,50.12c-0.035,0.33,0.205,0.625,0.535,0.659
				C107.464,408.943,107.485,408.944,107.506,408.944z"/>
		</g>
		<g>
			<path style="fill:#FAFAFA;" d="M100.169,412.496c0.315,0,0.579-0.245,0.599-0.563l3.143-50.12
				c0.021-0.331-0.231-0.616-0.562-0.637c-0.352-0.039-0.615,0.232-0.636,0.561l-3.143,50.12c-0.021,0.331,0.231,0.615,0.561,0.637
				C100.144,412.496,100.157,412.496,100.169,412.496z"/>
		</g>
		<g>
			<path style="fill:#FAFAFA;" d="M91.73,414.258c0.326,0,0.593-0.26,0.601-0.587l1.048-50.12c0.007-0.332-0.257-0.606-0.588-0.613
				c-0.38-0.043-0.606,0.257-0.613,0.588l-1.048,50.12c-0.007,0.332,0.257,0.606,0.588,0.613
				C91.722,414.258,91.727,414.258,91.73,414.258z"/>
		</g>
		<g>
			<path style="fill:#FAFAFA;" d="M82.909,414.258c0.004,0,0.008,0,0.013,0c0.331-0.007,0.594-0.281,0.587-0.613l-1.047-50.12
				c-0.007-0.327-0.275-0.588-0.6-0.588c-0.004,0-0.008,0-0.013,0c-0.331,0.007-0.594,0.282-0.587,0.613l1.047,50.12
				C82.316,413.998,82.583,414.258,82.909,414.258z"/>
		</g>
		<g>
			<path style="fill:#FAFAFA;" d="M74.47,412.496c0.012,0,0.025,0,0.038-0.001c0.33-0.021,0.583-0.306,0.561-0.637l-3.143-50.12
				c-0.021-0.329-0.259-0.603-0.637-0.561c-0.331,0.021-0.583,0.306-0.562,0.637l3.143,50.12
				C73.892,412.252,74.155,412.496,74.47,412.496z"/>
		</g>
		<g>
			<path style="fill:#FAFAFA;" d="M67.133,408.944c0.021,0,0.042-0.001,0.063-0.003c0.33-0.034,0.57-0.329,0.535-0.659l-5.238-50.12
				c-0.034-0.329-0.334-0.578-0.659-0.535c-0.329,0.034-0.57,0.329-0.535,0.659l5.238,50.119
				C66.569,408.715,66.831,408.944,67.133,408.944z"/>
		</g>
		<g>
			<path style="fill:#FAFAFA;" d="M61.216,402.686c0.029,0,0.059-0.002,0.088-0.006c0.328-0.048,0.556-0.353,0.508-0.681
				l-7.333-50.12c-0.048-0.329-0.362-0.547-0.681-0.507c-0.328,0.048-0.556,0.353-0.507,0.681l7.333,50.119
				C60.668,402.472,60.923,402.686,61.216,402.686z"/>
		</g>
		<g id="Bin_1_">
			<path style="fill:#BA68C8;" d="M48.206,342.228c0.36,1.873,1.153,3.721,2.365,5.51c1.909,2.881,4.874,5.57,8.895,7.899
				c15.378,8.872,40.323,8.872,55.713,0c4.009-2.328,6.986-5.018,8.895-7.899c1.201-1.789,1.981-3.637,2.353-5.51h0.012
				c1.369-6.674-2.389-13.637-11.26-18.763c-15.39-8.884-40.335-8.884-55.713,0C50.595,328.591,46.838,335.554,48.206,342.228z
				 M64.1,352.948c-4.946-2.869-7.983-6.41-9.111-10.108c1.104-3.974,4.142-7.791,9.111-10.876c12.821-7.947,33.613-7.947,46.433,0
				c4.97,3.085,8.007,6.903,9.112,10.888c-1.129,3.697-4.178,7.238-9.124,10.096C97.712,360.355,76.921,360.355,64.1,352.948z"/>
			<path style="opacity:0.75;fill:#FFFFFF;" d="M48.206,342.228c0.36,1.873,1.153,3.721,2.365,5.51
				c1.909,2.881,4.874,5.57,8.895,7.899c15.378,8.872,40.323,8.872,55.713,0c4.009-2.328,6.986-5.018,8.895-7.899
				c1.201-1.789,1.981-3.637,2.353-5.51h0.012c1.369-6.674-2.389-13.637-11.26-18.763c-15.39-8.884-40.335-8.884-55.713,0
				C50.595,328.591,46.838,335.554,48.206,342.228z M64.1,352.948c-4.946-2.869-7.983-6.41-9.111-10.108
				c1.104-3.974,4.142-7.791,9.111-10.876c12.821-7.947,33.613-7.947,46.433,0c4.97,3.085,8.007,6.903,9.112,10.888
				c-1.129,3.697-4.178,7.238-9.124,10.096C97.712,360.355,76.921,360.355,64.1,352.948z"/>
			<g>
				<path id="XMLID_7878_" style="fill:#BA68C8;" d="M50.57,347.734c1.909,2.88,4.88,5.578,8.892,7.898
					c15.383,8.88,40.332,8.88,55.716,0c4.011-2.32,6.983-5.017,8.892-7.898c1.2-1.783,1.989-3.634,2.354-5.508h0.012l-1.749,6.954
					c-0.8,4.834-4.4,9.543-10.823,13.246c-14.664,8.458-38.424,8.458-53.087,0c-6.332-3.657-9.932-8.308-10.789-13.074l-0.092-0.617
					l-1.692-6.509C48.57,344.099,49.359,345.951,50.57,347.734z"/>
				<path id="XMLID_7857_" style="opacity:0.6;fill:#FFFFFF;" d="M50.57,347.734c1.909,2.88,4.88,5.578,8.892,7.898
					c15.383,8.88,40.332,8.88,55.716,0c4.011-2.32,6.983-5.017,8.892-7.898c1.2-1.783,1.989-3.634,2.354-5.508h0.012l-1.749,6.954
					c-0.8,4.834-4.4,9.543-10.823,13.246c-14.664,8.458-38.424,8.458-53.087,0c-6.332-3.657-9.932-8.308-10.789-13.074l-0.092-0.617
					l-1.692-6.509C48.57,344.099,49.359,345.951,50.57,347.734z"/>
			</g>
			<g>
				<path style="fill:#BA68C8;" d="M54.664,341.472c0.084,0.456,0.192,0.913,0.324,1.369c1.104-3.974,4.142-7.791,9.111-10.876
					c12.821-7.947,33.613-7.947,46.433,0c4.97,3.085,8.007,6.903,9.112,10.888c0.144-0.456,0.252-0.925,0.336-1.393
					c0.949-5.462-2.197-11.116-9.46-15.318c-12.808-7.407-33.6-7.407-46.421,0C56.849,330.344,53.704,335.998,54.664,341.472z"/>
				<path style="opacity:0.6;fill:#FFFFFF;" d="M54.664,341.472c0.084,0.456,0.192,0.913,0.324,1.369
					c1.104-3.974,4.142-7.791,9.111-10.876c12.821-7.947,33.613-7.947,46.433,0c4.97,3.085,8.007,6.903,9.112,10.888
					c0.144-0.456,0.252-0.925,0.336-1.393c0.949-5.462-2.197-11.116-9.46-15.318c-12.808-7.407-33.6-7.407-46.421,0
					C56.849,330.344,53.704,335.998,54.664,341.472z"/>
			</g>
		</g>
	</g>
</g>
<g id="Folder_1_">
	<g id="Folder">
		<g id="XMLID_2984_">
			<path id="XMLID_3458_" style="fill:#BA68C8;" d="M265.026,64.22c0-0.339-0.116-0.577-0.303-0.698l0.002-0.001l-0.012-0.007
				c-0.008-0.005-0.015-0.009-0.023-0.014l-2.057-1.19c0,0-0.001-0.001-0.002-0.001l-0.004-0.002v0.001
				c-0.199-0.113-0.473-0.096-0.776,0.079l-31.597,18.227l-0.853-2.84c-0.085-0.283-0.253-0.488-0.461-0.61l0.007-0.003
				l-2.077-1.199l0.001,0.007c-0.288-0.171-0.657-0.178-1.011,0.026l-13.579,7.838c-0.61,0.352-1.104,1.208-1.104,1.912l0,45.281
				c0,0.338,0.116,0.576,0.301,0.697l-0.004,0.003l0.021,0.012c0.003,0.002,0.006,0.003,0.009,0.005l2.056,1.185
				c0.008,0.005,0.015,0.009,0.023,0.013l0.016,0.009v-0.003c0.197,0.099,0.46,0.08,0.752-0.088l49.57-28.619
				c0.61-0.352,1.104-1.208,1.104-1.912L265.026,64.22z"/>
			<g style="opacity:0.5;">
				<path id="XMLID_3455_" style="fill:#FFFFFF;" d="M228.918,77.146c-0.286-0.158-0.642-0.153-0.989,0.046l-13.578,7.837
					c-0.301,0.178-0.576,0.479-0.78,0.826l-2.07-1.198c0.199-0.347,0.474-0.653,0.78-0.826l13.578-7.837
					c0.357-0.204,0.724-0.194,1.01-0.025v-0.005L228.918,77.146z"/>
				<path id="XMLID_3452_" style="fill:#FFFFFF;" d="M264.645,63.477c-0.194-0.082-0.449-0.051-0.724,0.107l-31.948,18.432
					c-0.612,0.352-1.27,0.092-1.474-0.586l-0.245-0.816l31.596-18.228c0.173-0.102,0.342-0.148,0.489-0.148
					c0.107,0,0.204,0.026,0.286,0.071h0.005L264.645,63.477z"/>
			</g>
			<path id="XMLID_2985_" style="opacity:0.2;" d="M213.403,132.778c0.031,0.046,0.066,0.081,0.107,0.117l-2.004-1.152
				c-0.005-0.005-0.005-0.005-0.01-0.005l-0.02-0.015c-0.077-0.051-0.138-0.122-0.189-0.214c-0.021-0.041-0.041-0.082-0.051-0.128
				c-0.036-0.102-0.056-0.219-0.056-0.357l-0.005-45.281c0-0.046,0-0.087,0.005-0.133c0.01-0.092,0.026-0.184,0.046-0.275
				c0.01-0.046,0.025-0.092,0.036-0.138c0.046-0.138,0.102-0.275,0.168-0.408c0.02-0.046,0.046-0.092,0.071-0.132l2.07,1.198
				c-0.199,0.342-0.321,0.734-0.321,1.086v45.281c0,0.066,0.005,0.133,0.015,0.194c0.005,0.036,0.01,0.071,0.02,0.107
				c0.005,0.02,0.01,0.036,0.015,0.056c0.01,0.025,0.02,0.051,0.031,0.072C213.347,132.696,213.372,132.737,213.403,132.778z"/>
		</g>
		<g>
			<path style="fill:#FAFAFA;" d="M248.749,92.763c0,6.815-4.143,14.732-9.254,17.682c-5.111,2.951-9.255-0.182-9.255-6.996
				c0-6.815,4.143-14.731,9.255-17.683C244.606,82.816,248.749,85.949,248.749,92.763z"/>
			<path style="fill:#BA68C8;" d="M244.539,92.427l-4.388-3.318c-0.032-0.024-0.072-0.028-0.105-0.048
				c-0.074-0.045-0.15-0.081-0.234-0.108c-0.065-0.02-0.127-0.031-0.194-0.039c-0.042-0.005-0.079-0.025-0.123-0.025
				c-0.046,0-0.085,0.021-0.129,0.026c-0.037,0.005-0.073-0.008-0.109,0.001c-0.03,0.007-0.052,0.029-0.081,0.038
				c-0.086,0.027-0.163,0.065-0.238,0.111c-0.052,0.032-0.102,0.06-0.147,0.099c-0.071,0.062-0.126,0.135-0.179,0.213
				c-0.024,0.035-0.061,0.058-0.08,0.095l-4.388,8.386c-0.279,0.533-0.073,1.19,0.459,1.469c0.161,0.084,0.333,0.124,0.504,0.124
				c0.392,0,0.77-0.212,0.964-0.583l2.337-4.465v11.834c0,0.601,0.487,1.088,1.088,1.088c0.601,0,1.088-0.487,1.088-1.088V92.163
				l2.644,2c0.478,0.362,1.161,0.267,1.524-0.212C245.113,93.472,245.018,92.79,244.539,92.427z"/>
		</g>
	</g>
</g>
<g id="Musical_Notes_1_">
	<g id="Musical_Notes">
		<g id="Musical_note_14_">
			<path id="Musical_note_2_" style="fill:#BA68C8;" d="M279.443,53.375l-2.875,11.14c-0.278-0.187-0.584-0.341-0.928-0.429
				c-1.611-0.413-3.252,0.558-3.664,2.169c-0.412,1.611,0.56,3.252,2.171,3.665c1.611,0.413,3.252-0.559,3.665-2.169l2.581-9.984
				l10.733-0.052l0.005,0.004l-0.004-0.001l-2.537,9.9c-0.278-0.188-0.585-0.341-0.928-0.429c-1.611-0.413-3.252,0.558-3.664,2.169
				c-0.412,1.611,0.559,3.252,2.171,3.665c1.61,0.412,3.25-0.558,3.664-2.167l0.001,0l4.236-16.53L279.443,53.375z"/>
			<path id="Musical_note_5_" style="opacity:0.45;fill:#FFFFFF;" d="M279.443,53.375l-2.875,11.14
				c-0.278-0.187-0.584-0.341-0.928-0.429c-1.611-0.413-3.252,0.558-3.664,2.169c-0.412,1.611,0.56,3.252,2.171,3.665
				c1.611,0.413,3.252-0.559,3.665-2.169l2.581-9.984l10.733-0.052l0.005,0.004l-0.004-0.001l-2.537,9.9
				c-0.278-0.188-0.585-0.341-0.928-0.429c-1.611-0.413-3.252,0.558-3.664,2.169c-0.412,1.611,0.559,3.252,2.171,3.665
				c1.61,0.412,3.25-0.558,3.664-2.167l0.001,0l4.236-16.53L279.443,53.375z"/>
		</g>
		<g id="Musical_note_9_">
			<path id="Musical_note_4_" style="fill:#BA68C8;" d="M238.617,40.312l-2.875,11.14c-0.278-0.187-0.584-0.34-0.927-0.429
				c-1.611-0.413-3.252,0.558-3.664,2.169c-0.412,1.611,0.559,3.252,2.17,3.665c1.611,0.413,3.252-0.558,3.665-2.169l2.581-9.984
				l10.733-0.052l0.005,0.004l-0.004-0.001l-2.537,9.9c-0.278-0.188-0.585-0.341-0.928-0.429c-1.611-0.414-3.252,0.558-3.664,2.169
				c-0.412,1.611,0.559,3.252,2.17,3.665c1.61,0.412,3.25-0.558,3.664-2.167l0.001,0l4.236-16.53L238.617,40.312z"/>
			<path id="Musical_note_10_" style="opacity:0.7;fill:#FFFFFF;" d="M238.617,40.312l-2.875,11.14
				c-0.278-0.187-0.584-0.34-0.927-0.429c-1.611-0.413-3.252,0.558-3.664,2.169c-0.412,1.611,0.559,3.252,2.17,3.665
				c1.611,0.413,3.252-0.558,3.665-2.169l2.581-9.984l10.733-0.052l0.005,0.004l-0.004-0.001l-2.537,9.9
				c-0.278-0.188-0.585-0.341-0.928-0.429c-1.611-0.414-3.252,0.558-3.664,2.169c-0.412,1.611,0.559,3.252,2.17,3.665
				c1.61,0.412,3.25-0.558,3.664-2.167l0.001,0l4.236-16.53L238.617,40.312z"/>
		</g>
		<g id="Musical_note">
			<path id="Musical_note_1_" style="fill:#BA68C8;" d="M265.471,32.719c0.301-0.478,0.839-0.963,1.391-1.307
				c0.729-0.453,1.548-0.741,2.365-0.989c1.096-0.332,2.223-0.605,3.234-1.143c1.011-0.538,1.918-1.393,2.217-2.499
				c-0.551,0.381-1.189,0.635-1.851,0.737c-1.589,0.243-3.413-0.533-5.019-0.621c-2.39-0.131-4.088,0.935-5.933,2.682
				c1.029,1.829,2.015,3.688,3.021,5.532c0.79,1.447,1.579,2.893,2.369,4.34c0.075,0.138,1.025,1.996,1.025,1.996
				c-0.69,0.001-1.458,0.303-1.823,0.503c-1.713,0.938-2.341,3.087-1.402,4.8c0.939,1.713,3.089,2.34,4.801,1.401
				c1.713-0.939,2.34-3.088,1.402-4.8L265.471,32.719z"/>
			<path id="Musical_note_8_" style="opacity:0.2;fill:#FFFFFF;" d="M265.471,32.719c0.301-0.478,0.839-0.963,1.391-1.307
				c0.729-0.453,1.548-0.741,2.365-0.989c1.096-0.332,2.223-0.605,3.234-1.143c1.011-0.538,1.918-1.393,2.217-2.499
				c-0.551,0.381-1.189,0.635-1.851,0.737c-1.589,0.243-3.413-0.533-5.019-0.621c-2.39-0.131-4.088,0.935-5.933,2.682
				c1.029,1.829,2.015,3.688,3.021,5.532c0.79,1.447,1.579,2.893,2.369,4.34c0.075,0.138,1.025,1.996,1.025,1.996
				c-0.69,0.001-1.458,0.303-1.823,0.503c-1.713,0.938-2.341,3.087-1.402,4.8c0.939,1.713,3.089,2.34,4.801,1.401
				c1.713-0.939,2.34-3.088,1.402-4.8L265.471,32.719z"/>
		</g>
	</g>
</g>
<g id="Images_1_">
	<g id="Images">
		<g>
			<path style="fill:#F5F5F5;" d="M291.883,80.468c0,0-4.184,16.45,4.041,33.261c0,0,25.631-5.964,38.858-4.798
				c-8.225-16.811-3.387-31.733-3.387-31.733C320.973,74.711,300.856,75.346,291.883,80.468z"/>
			<path style="fill:#BA68C8;" d="M297.41,110.723c-5.489-12.653-3.892-24.865-3.223-28.517c7.799-3.751,23.823-4.679,34.025-2.985
				c-0.958,4.807-2.07,15.164,2.513,26.951C319.191,106.219,303.118,109.481,297.41,110.723z"/>
			<path style="opacity:0.7;fill:#FFFFFF;" d="M297.41,110.723c-5.489-12.653-3.892-24.865-3.223-28.517
				c7.799-3.751,23.823-4.679,34.025-2.985c-0.958,4.807-2.07,15.164,2.513,26.951C319.191,106.219,303.118,109.481,297.41,110.723z
				"/>
			<path style="opacity:0.7;fill:#FFFFFF;" d="M317.111,83.99c-1.37-0.239-2.704,0.592-2.98,1.855
				c-0.276,1.263,0.619,2.488,1.998,2.735c1.379,0.247,2.713-0.583,2.98-1.855C319.376,85.453,318.481,84.229,317.111,83.99z"/>
			<path style="opacity:0.7;fill:#FFFFFF;" d="M295.948,103.116l9.271-12.964l16.298,11.536l-5.419-5.726l3.881-3.906l7.614,7.488
				c0.418,1.815,0.956,3.69,1.638,5.606c-10.834,0.279-24.759,2.994-31.196,4.37C297.145,107.354,296.464,105.205,295.948,103.116z"
				/>
		</g>
		<path style="opacity:0.2;" d="M291.476,99.444c0.696,4.461,2.036,9.356,4.448,14.285c0,0,4.499-1.046,10.692-2.175
			c-4.522-8.149-5.155-14.971-5.155-14.971C298.573,97.082,295.109,98.085,291.476,99.444z"/>
		<g>
			<path style="fill:#F5F5F5;" d="M264.238,114.015c0,0,2.646,16.766,16.836,28.968c0,0,21.198-15.593,33.812-19.74
				c-14.19-12.202-15.633-27.823-15.633-27.823C288.698,97.247,270.464,105.768,264.238,114.015z"/>
			<path style="fill:#BA68C8;" d="M281.254,139.634c-10.036-9.461-13.387-21.312-14.213-24.932
				c5.687-6.524,20.044-13.699,30.087-16.167c1.016,4.795,4.081,14.75,12.942,23.773
				C299.492,126.902,286.009,136.241,281.254,139.634z"/>
			<path style="opacity:0.7;fill:#FFFFFF;" d="M281.254,139.634c-10.036-9.461-13.387-21.312-14.213-24.932
				c5.687-6.524,20.044-13.699,30.087-16.167c1.016,4.795,4.081,14.75,12.942,23.773
				C299.492,126.902,286.009,136.241,281.254,139.634z"/>
			<path style="opacity:0.7;fill:#FFFFFF;" d="M288.81,107.297c-1.353,0.321-2.251,1.611-2.007,2.88
				c0.245,1.27,1.55,2.042,2.915,1.725c1.365-0.317,2.263-1.606,2.007-2.88C291.468,107.748,290.163,106.976,288.81,107.297z"/>
			<path style="opacity:0.7;fill:#FFFFFF;" d="M276.909,133.221l3.404-15.571l19.528,4.17l-7.239-3.123l2.025-5.12l9.951,3.876
				c1.101,1.503,2.334,3.013,3.717,4.505c-9.845,4.531-21.569,12.519-26.941,16.324
				C279.682,136.643,278.207,134.937,276.909,133.221z"/>
		</g>
	</g>
</g>
<g id="Document_1_">
	<g id="Document">
		<g>
			<path style="fill:#FAFAFA;" d="M334.552,181.083c-10.063,0-19.999-5.14-23.546-8.613c-7.692-9.857-12.145-21.126-13.197-33.453
				c2.069,0.2,4.142,0.301,6.169,0.301c15.377,0,25.351-5.815,28.048-7.6c3.425,21.562,20.575,34.829,23.535,36.973
				c-3.258,4.95-8.976,8.936-17.006,11.851c-0.396,0.144-0.795,0.277-1.194,0.398C336.451,181.036,335.506,181.083,334.552,181.083z
				"/>
			<path style="fill:#E0E0E0;" d="M331.629,132.633c3.605,20.406,19.302,33.275,23.192,36.186
				c-3.237,4.654-8.765,8.423-16.451,11.214c-0.369,0.134-0.744,0.26-1.118,0.375c-0.875,0.089-1.782,0.134-2.7,0.134
				c-9.865,0-19.589-4.999-23.115-8.409c-7.511-9.637-11.891-20.57-13.029-32.516c1.87,0.162,3.738,0.244,5.57,0.244
				C318.551,139.86,328.134,134.832,331.629,132.633 M332.432,130.776c0,0-10.357,8.001-28.455,8.001
				c-2.146,0-4.401-0.112-6.76-0.364c1.097,14.543,6.818,26.005,13.41,34.445c3.763,3.686,13.912,8.768,23.924,8.768
				c0.976,0,1.949-0.048,2.916-0.151c0.426-0.129,0.85-0.27,1.272-0.423c6.655-2.416,13.701-6.31,17.557-12.504
				C356.296,168.548,335.806,154.841,332.432,130.776L332.432,130.776z"/>
		</g>
		<path style="fill:#BA68C8;" d="M330.608,137.401l3.612,10.817c-2.958,2.718-6.531,4.343-10.637,5.02l-3.294-11.312
			C324.037,141.143,327.514,139.494,330.608,137.401z"/>
		<path style="opacity:0.7;fill:#FFFFFF;" d="M330.608,137.401l3.612,10.817c-2.958,2.718-6.531,4.343-10.637,5.02l-3.294-11.312
			C324.037,141.143,327.514,139.494,330.608,137.401z"/>
		<g>
			
				<path style="fill:none;stroke:#E0E0E0;stroke-width:0.8128;stroke-linecap:round;stroke-linejoin:round;stroke-miterlimit:10;" d="
				M304.12,144.266c5.327-0.009,10.191-0.46,14.522-1.419"/>
			
				<path style="fill:none;stroke:#E0E0E0;stroke-width:0.8128;stroke-linecap:round;stroke-linejoin:round;stroke-miterlimit:10;" d="
				M305.428,150.037c5.339-0.124,10.203-0.683,14.519-1.742"/>
			
				<path style="fill:none;stroke:#E0E0E0;stroke-width:0.8128;stroke-linecap:round;stroke-linejoin:round;stroke-miterlimit:10;" d="
				M307.54,155.704c5.145-0.231,9.839-0.856,14.014-1.934"/>
			
				<path style="fill:none;stroke:#E0E0E0;stroke-width:0.8128;stroke-linecap:round;stroke-linejoin:round;stroke-miterlimit:10;" d="
				M310.342,161.163c10.793-0.718,19.558-3.134,25.663-7.777"/>
			
				<path style="fill:none;stroke:#E0E0E0;stroke-width:0.8128;stroke-linecap:round;stroke-linejoin:round;stroke-miterlimit:10;" d="
				M313.717,166.312c10.775-0.952,19.486-3.556,25.489-8.33"/>
			
				<path style="fill:none;stroke:#E0E0E0;stroke-width:0.8128;stroke-linecap:round;stroke-linejoin:round;stroke-miterlimit:10;" d="
				M317.552,171.047c10.757-1.185,19.413-3.979,25.315-8.883"/>
			
				<path style="fill:none;stroke:#E0E0E0;stroke-width:0.8128;stroke-linecap:round;stroke-linejoin:round;stroke-miterlimit:10;" d="
				M321.731,175.264c10.738-1.418,19.341-4.401,25.14-9.436"/>
			
				<path style="fill:none;stroke:#E0E0E0;stroke-width:0.8128;stroke-linecap:round;stroke-linejoin:round;stroke-miterlimit:10;" d="
				M326.139,178.861c10.72-1.652,19.269-4.823,24.966-9.99"/>
		</g>
		<path style="fill:#EBEBEB;" d="M337.468,181.475c-5.362,0.243-9.022-5.037-9.466-8.617c-3.233,1.985-11.372,3.366-17.374,0
			C315.99,178.791,331.298,182.903,337.468,181.475z"/>
		<path style="opacity:0.7;fill:#FFFFFF;" d="M330.365,138.745c-1.545,1.103-6.344,3.42-9.047,4.027l0.662,2.483
			c0,0,0.029-1.227,0.662-1.434c1.676-0.55,3.236-1.185,3.236-1.185s1.674,4.937,1.895,5.985c0.221,1.048-0.14,1.876-1.284,2.317
			l0.236,0.497c1.646-0.63,3.131-1.361,4.412-2.22l-0.184-0.392c0,0-1.705,0.66-2.202-0.609c-0.496-1.269-1.926-6.01-1.926-6.01
			s2.259-1.136,2.793-1.444c1.038-0.598,1.75,0.53,1.75,0.53L330.365,138.745z"/>
	</g>
</g>
<g id="Video_1_">
	<g id="Video">
		<path style="fill:#F5F5F5;" d="M401.875,153.813c0,0-4.656-16.528-20.367-27.094c0,0-19.437,18.192-31.615,23.861
			c15.71,10.567,19.021,26.087,19.021,26.087C379.302,173.573,396.604,162.839,401.875,153.813z"/>
		<path style="fill:#BA68C8;" d="M381.727,130.104c11.21,8.308,15.989,19.814,17.25,23.352
			c-4.935,7.231-18.503,16.151-28.298,19.828c-1.593-4.696-5.858-14.332-15.836-22.339
			C364.923,145.068,377.355,134.079,381.727,130.104z"/>
		<path style="opacity:0.7;fill:#FFFFFF;" d="M381.727,130.104c11.21,8.308,15.989,19.814,17.25,23.352
			c-4.935,7.231-18.503,16.151-28.298,19.828c-1.593-4.696-5.858-14.332-15.836-22.339
			C364.923,145.068,377.355,134.079,381.727,130.104z"/>
		<path style="opacity:0.7;fill:#FFFFFF;" d="M377.931,159.377c-1.129-2.969-4.265-6.881-6.81-8.504
			c3.649-0.792,8.468-2.667,11.987-5.258C383.108,145.615,384.228,151.457,377.931,159.377z"/>
	</g>
</g>
<g id="Documents">
	<g id="Line">
		<g>
			<path style="fill:#455A64;" d="M310.072,229.878c-0.197,0-0.39-0.102-0.495-0.285c-0.157-0.273-0.064-0.622,0.208-0.779
				l1.267-0.732c0.276-0.158,0.623-0.063,0.78,0.209c0.157,0.273,0.064,0.622-0.209,0.779l-1.267,0.731
				C310.266,229.853,310.168,229.878,310.072,229.878z"/>
		</g>
		<g>
			<path style="fill:#455A64;" d="M315.472,226.76c-0.197,0-0.39-0.102-0.495-0.285c-0.157-0.273-0.064-0.622,0.21-0.779l2.48-1.432
				c0.274-0.158,0.623-0.063,0.779,0.209c0.157,0.273,0.064,0.622-0.21,0.779l-2.48,1.432
				C315.666,226.735,315.568,226.76,315.472,226.76z M322.085,222.942c-0.197,0-0.39-0.102-0.495-0.285
				c-0.157-0.273-0.064-0.622,0.21-0.779l2.48-1.432c0.273-0.158,0.622-0.063,0.779,0.209c0.157,0.273,0.064,0.622-0.209,0.779
				l-2.48,1.432C322.279,222.917,322.181,222.942,322.085,222.942z M328.698,219.124c-0.197,0-0.39-0.102-0.495-0.285
				c-0.157-0.273-0.064-0.622,0.21-0.779l2.48-1.432c0.274-0.158,0.622-0.063,0.779,0.209c0.157,0.273,0.064,0.622-0.21,0.779
				l-2.48,1.432C328.892,219.099,328.794,219.124,328.698,219.124z M335.311,215.305c-0.197,0-0.39-0.103-0.495-0.285
				c-0.157-0.273-0.064-0.622,0.21-0.779l2.48-1.432c0.273-0.158,0.622-0.064,0.779,0.209c0.157,0.273,0.064,0.622-0.21,0.779
				l-2.48,1.432C335.506,215.281,335.408,215.305,335.311,215.305z M341.925,211.487c-0.197,0-0.39-0.102-0.495-0.285
				c-0.157-0.273-0.064-0.622,0.209-0.779l2.48-1.432c0.274-0.158,0.623-0.064,0.779,0.209c0.157,0.273,0.064,0.622-0.209,0.779
				l-2.48,1.432C342.119,211.462,342.021,211.487,341.925,211.487z M348.538,207.669c-0.197,0-0.39-0.103-0.495-0.285
				c-0.157-0.273-0.064-0.622,0.21-0.779l2.48-1.432c0.273-0.158,0.622-0.064,0.779,0.209c0.157,0.273,0.064,0.622-0.21,0.779
				l-2.48,1.432C348.732,207.644,348.634,207.669,348.538,207.669z M355.151,203.851c-0.197,0-0.39-0.102-0.495-0.285
				c-0.157-0.273-0.064-0.622,0.21-0.779l2.48-1.432c0.274-0.158,0.622-0.064,0.779,0.209c0.157,0.273,0.064,0.622-0.21,0.779
				l-2.48,1.432C355.345,203.826,355.247,203.851,355.151,203.851z M361.764,200.033c-0.197,0-0.39-0.102-0.495-0.285
				c-0.157-0.273-0.064-0.622,0.21-0.779l2.48-1.432c0.273-0.158,0.622-0.063,0.779,0.209c0.157,0.273,0.064,0.622-0.21,0.779
				l-2.48,1.432C361.959,200.008,361.861,200.033,361.764,200.033z M368.378,196.215c-0.197,0-0.389-0.102-0.495-0.285
				c-0.157-0.273-0.064-0.622,0.21-0.779l2.48-1.432c0.274-0.158,0.623-0.063,0.779,0.209c0.157,0.273,0.064,0.622-0.21,0.779
				l-2.48,1.432C368.572,196.19,368.474,196.215,368.378,196.215z M374.991,192.397c-0.197,0-0.39-0.102-0.495-0.285
				c-0.157-0.273-0.064-0.622,0.209-0.779l2.48-1.432c0.273-0.158,0.622-0.063,0.779,0.209c0.157,0.273,0.064,0.622-0.21,0.779
				l-2.48,1.432C375.185,192.372,375.087,192.397,374.991,192.397z M381.604,188.578c-0.197,0-0.39-0.102-0.495-0.285
				c-0.157-0.273-0.064-0.622,0.21-0.779l2.48-1.432c0.274-0.158,0.622-0.063,0.779,0.209c0.157,0.273,0.064,0.622-0.21,0.779
				l-2.48,1.432C381.798,188.553,381.7,188.578,381.604,188.578z M388.217,184.76c-0.197,0-0.39-0.102-0.495-0.285
				c-0.157-0.273-0.064-0.622,0.21-0.779l2.48-1.432c0.273-0.157,0.623-0.063,0.779,0.209c0.157,0.273,0.064,0.622-0.209,0.779
				l-2.48,1.432C388.411,184.735,388.314,184.76,388.217,184.76z M394.83,180.942c-0.197,0-0.39-0.102-0.495-0.285
				c-0.157-0.273-0.064-0.622,0.21-0.779l2.48-1.432c0.274-0.157,0.623-0.063,0.779,0.209c0.157,0.273,0.064,0.622-0.21,0.779
				l-2.48,1.432C395.025,180.917,394.927,180.942,394.83,180.942z M401.444,177.124c-0.197,0-0.39-0.102-0.495-0.285
				c-0.157-0.273-0.064-0.622,0.21-0.779l2.48-1.432c0.275-0.157,0.623-0.063,0.779,0.209c0.157,0.273,0.064,0.622-0.21,0.779
				l-2.48,1.432C401.638,177.099,401.54,177.124,401.444,177.124z"/>
		</g>
		<g>
			<path style="fill:#455A64;" d="M408.057,173.306c-0.197,0-0.389-0.102-0.495-0.285c-0.157-0.273-0.064-0.622,0.209-0.779
				l0.982-0.567v-1.133c0-0.315,0.255-0.571,0.571-0.571c0.315,0,0.57,0.255,0.57,0.571v1.463c0,0.204-0.109,0.392-0.285,0.494
				l-1.267,0.731C408.251,173.281,408.153,173.306,408.057,173.306z"/>
		</g>
		<g>
			<path style="fill:#455A64;" d="M409.323,166.042c-0.315,0-0.571-0.255-0.571-0.571v-3.042c0-0.315,0.255-0.571,0.571-0.571
				c0.315,0,0.57,0.255,0.57,0.571v3.042C409.893,165.786,409.638,166.042,409.323,166.042z M409.323,157.93
				c-0.315,0-0.571-0.255-0.571-0.571v-3.042c0-0.315,0.255-0.57,0.571-0.57c0.315,0,0.57,0.255,0.57,0.57v3.042
				C409.893,157.674,409.638,157.93,409.323,157.93z M409.323,149.818c-0.315,0-0.571-0.255-0.571-0.571v-3.042
				c0-0.315,0.255-0.57,0.571-0.57c0.315,0,0.57,0.255,0.57,0.57v3.042C409.893,149.562,409.638,149.818,409.323,149.818z
				 M409.323,141.706c-0.315,0-0.571-0.255-0.571-0.571v-3.042c0-0.315,0.255-0.57,0.571-0.57c0.315,0,0.57,0.255,0.57,0.57v3.042
				C409.893,141.45,409.638,141.706,409.323,141.706z M409.323,133.594c-0.315,0-0.571-0.255-0.571-0.571v-3.042
				c0-0.315,0.255-0.57,0.571-0.57c0.315,0,0.57,0.255,0.57,0.57v3.042C409.893,133.338,409.638,133.594,409.323,133.594z
				 M409.323,125.481c-0.315,0-0.571-0.255-0.571-0.57v-3.042c0-0.315,0.255-0.571,0.571-0.571c0.315,0,0.57,0.255,0.57,0.571v3.042
				C409.893,125.226,409.638,125.481,409.323,125.481z M409.323,117.37c-0.315,0-0.571-0.255-0.571-0.57v-3.042
				c0-0.315,0.255-0.571,0.571-0.571c0.315,0,0.57,0.255,0.57,0.571v3.042C409.893,117.115,409.638,117.37,409.323,117.37z"/>
		</g>
		<g>
			<path style="fill:#455A64;" d="M409.323,109.258c-0.315,0-0.571-0.255-0.571-0.571v-1.463c0-0.315,0.255-0.571,0.571-0.571
				c0.315,0,0.57,0.255,0.57,0.571v1.463C409.893,109.002,409.638,109.258,409.323,109.258z"/>
		</g>
	</g>
</g>
<g id="Cloud_2_">
	<g id="Cloud_1_">
		<g id="Cloud_3_">
			<path id="XMLID_8086_" style="opacity:0.8;fill:#BA68C8;" d="M445.405,63.36l0.005-0.01l-0.233-0.135
				c-0.047-0.027-0.093-0.057-0.142-0.082l-5.143-2.97c0.002-0.12,0.007-0.241,0.007-0.361c0-6.317-2.126-10.741-5.474-12.602
				l0.008-0.002l-9.889-5.712l0.005,0.011c-2.719-1.565-6.26-1.421-10.137,0.817c-1.71,0.987-3.354,2.308-4.892,3.878
				c-0.655-0.67-1.368-1.241-2.137-1.696l0.001,0l-9.559-5.499l0.003,0.011c-3.497-2.319-8.182-2.272-13.335,0.703
				c-10.823,6.249-19.597,23.013-19.597,37.444c0,1.706,0.127,3.299,0.361,4.778l-1.351,0.78
				c-6.886,3.975-12.467,14.641-12.467,23.821l0,0c0,5.07,1.704,8.683,4.388,10.238l-0.006,0.002l10.007,5.778l0.001-0.003
				c2.173,1.245,4.983,1.147,8.055-0.627l18.133-10.469l48.3-27.886c4.131-2.385,7.48-8.784,7.48-14.293v0
				C447.795,66.391,446.872,64.334,445.405,63.36z"/>
			<path id="XMLID_8084_" style="opacity:0.2;fill:#FFFFFF;" d="M445.405,63.36l0.005-0.01l-0.233-0.135
				c-0.047-0.027-0.093-0.057-0.142-0.082l-5.143-2.97c0.002-0.12,0.007-0.241,0.007-0.361c0-6.317-2.126-10.741-5.474-12.602
				l0.008-0.002l-9.889-5.712l0.005,0.011c-2.719-1.565-6.26-1.421-10.137,0.817c-1.71,0.987-3.354,2.308-4.892,3.878
				c-0.655-0.67-1.368-1.241-2.137-1.696l0.001,0l-9.559-5.499l0.003,0.011c-3.497-2.319-8.182-2.272-13.335,0.703
				c-10.823,6.249-19.597,23.013-19.597,37.444c0,1.706,0.127,3.299,0.361,4.778l-1.351,0.78
				c-6.886,3.975-12.467,14.641-12.467,23.821l0,0c0,5.07,1.704,8.683,4.388,10.238l-0.006,0.002l10.007,5.778l0.001-0.003
				c2.173,1.245,4.983,1.147,8.055-0.627l18.133-10.469l48.3-27.886c4.131-2.385,7.48-8.784,7.48-14.293v0
				C447.795,66.391,446.872,64.334,445.405,63.36z"/>
			<path id="XMLID_8082_" style="opacity:0.35;fill:#FFFFFF;" d="M434.434,47.198h-0.01c-2.702-1.507-6.212-1.333-10.038,0.879
				c-1.798,1.042-3.525,2.447-5.129,4.123l-9.068-5.267l-0.889-0.516c0.072-0.077,0.148-0.153,0.22-0.225
				c1.538-1.568,3.183-2.886,4.889-3.877c3.877-2.238,7.422-2.381,10.14-0.817l-0.005-0.01L434.434,47.198z"/>
			<path id="XMLID_8080_" style="opacity:0.8;fill:#FFFFFF;" d="M409.521,46.192c0.235,0.235,0.455,0.48,0.669,0.741l-0.889-0.516
				C409.372,46.34,409.449,46.263,409.521,46.192z"/>
			<path id="XMLID_8078_" style="opacity:0.35;fill:#FFFFFF;" d="M407.14,44.358l-0.005,0.005c-3.412-1.9-7.836-1.681-12.669,1.109
				c-4.909,2.835-9.399,7.836-12.837,13.803l-9.971-5.757c3.438-5.967,7.923-10.968,12.832-13.808
				c5.154-2.973,9.839-3.019,13.338-0.7l-0.005-0.01L407.14,44.358z"/>
			<path id="XMLID_8076_" style="opacity:0.35;fill:#FFFFFF;" d="M375.233,87.698l-1.354,0.776
				c-4.664,2.692-8.735,8.465-10.865,14.763l-9.977-5.762c1.701-5.022,4.633-9.701,8.117-12.761l4.102-2.779L375.233,87.698z"/>
			<path id="XMLID_8075_" style="fill:#BA68C8;" d="M440.315,63.619l-0.716,0.413c0.196-1.425,0.3-2.841,0.3-4.229
				c0-11.422-6.944-16.672-15.511-11.726c-3.974,2.294-7.597,6.381-10.342,11.242c-0.387-13.752-9.002-19.952-19.578-13.846
				c-10.823,6.249-19.597,23.013-19.597,37.444c0,1.706,0.126,3.299,0.361,4.779l-1.35,0.78
				c-6.886,3.975-12.468,14.641-12.468,23.822l0,0c0,9.181,5.582,13.601,12.468,9.626l18.133-10.469l0,0l48.3-27.886
				c4.131-2.385,7.48-8.784,7.48-14.293v0C447.795,63.766,444.446,61.234,440.315,63.619z"/>
			<path id="XMLID_8073_" style="opacity:0.7;fill:#FFFFFF;" d="M440.315,63.619l-0.716,0.413c0.196-1.425,0.3-2.841,0.3-4.229
				c0-11.422-6.944-16.672-15.511-11.726c-3.974,2.294-7.597,6.381-10.342,11.242c-0.387-13.752-9.002-19.952-19.578-13.846
				c-10.823,6.249-19.597,23.013-19.597,37.444c0,1.706,0.126,3.299,0.361,4.779l-1.35,0.78
				c-6.886,3.975-12.468,14.641-12.468,23.822l0,0c0,9.181,5.582,13.601,12.468,9.626l18.133-10.469l0,0l48.3-27.886
				c4.131-2.385,7.48-8.784,7.48-14.293v0C447.795,63.766,444.446,61.234,440.315,63.619z"/>
			<path id="XMLID_8068_" style="opacity:0.7;fill:#FFFFFF;" d="M369.023,120.832c-3.07,0-5.055-3.351-5.055-8.536
				c0-8.211,5.125-18.107,11.191-21.609l1.351-0.78c0.916-0.529,1.411-1.567,1.245-2.611l0,0c-0.219-1.379-0.329-2.852-0.329-4.379
				c0-13.595,8.218-29.4,18.319-35.232c2.309-1.333,4.496-2.008,6.5-2.008c5.466,0,9.01,5.255,9.248,13.714v0
				c0.073,2.587,3.504,3.438,4.777,1.184l0,0c2.627-4.651,5.963-8.305,9.395-10.286c1.746-1.008,3.388-1.519,4.881-1.519
				c4.13,0,6.798,4.331,6.798,11.033c0,1.241-0.093,2.547-0.276,3.882l0,0c-0.289,2.105,1.968,3.622,3.807,2.559l0.715-0.413
				c0.63-0.363,1.215-0.555,1.693-0.555c1.351,0,1.957,2.008,1.957,3.998c0,4.607-2.841,10.14-6.203,12.081l-66.433,38.355
				C371.315,120.455,370.11,120.832,369.023,120.832C369.024,120.832,369.024,120.832,369.023,120.832z"/>
		</g>
	</g>
</g>
</svg>
